<svg xmlns="http://www.w3.org/2000/svg" xmlns:xlink="http://www.w3.org/1999/xlink" viewBox="0 0 1314.12 375.61"><defs><style>.cls-1{fill:url(#linear-gradient);}.cls-2{fill:url(#linear-gradient-2);}.cls-3{fill:url(#linear-gradient-3);}.cls-4{fill:#fff;}.cls-5{fill:#08082b;}</style><linearGradient id="linear-gradient" x1="264.12" y1="26.77" x2="464.14" y2="151.14" gradientTransform="translate(-270.33 131.53) rotate(1.99)" gradientUnits="userSpaceOnUse"><stop offset="0" stop-color="#29abe2"/><stop offset="1" stop-color="#0071bc"/></linearGradient><linearGradient id="linear-gradient-2" x1="314.45" y1="-56.92" x2="280.26" y2="49.07" xlink:href="#linear-gradient"/><linearGradient id="linear-gradient-3" x1="460.05" y1="23.01" x2="425.74" y2="103.07" xlink:href="#linear-gradient"/></defs><g id="Logo"><path class="cls-1" d="M227.68,246.4A121.81,121.81,0,0,1,.07,181.92c.87-25,8-48.16,19-70.15-.7,7.7-.69,20.65,1.2,38.52,2.84,26.7,8.5,36.53,13.66,33.93,5.77-2.9,2.48-19.27,2.88-45.87C37,124.86,47.34,120,60.41,149c6.16,13.71,16,33.33,29.73,52.14h0C118.81,240.52,164.27,276.29,227.68,246.4Z"/><path class="cls-2" d="M28.91,135.4c-3-17.24-1.53-44,11.26-53.94S60.6,86.51,50.89,100,30.79,125.09,28.91,135.4Z"/><path class="cls-3" d="M211.72,182.06c-39.85-9-72.95,22.52-113.12,20.09,26.84,37.42,68.64,68.79,129.08,44.25a120.91,120.91,0,0,0,14.53-41.56C237,193.54,225.62,185.2,211.72,182.06Z"/><path class="cls-4" d="M194.93,9.27a5.33,5.33,0,1,1-5.15-5.51A5.33,5.33,0,0,1,194.93,9.27Z"/><path class="cls-5" d="M383.14,189.82a47.8,47.8,0,0,1,6.32-2.11,32.52,32.52,0,0,1,8.69-1.19A31.51,31.51,0,0,1,411,188.81q5.13,2.3,6.23,6.68l3.75,14q1.74,6.49,3.39,12.45t3.2,11.8q1.55,5.87,3,12.27h.91q1.65-11.17,2.93-21.33t2.38-20q1.1-9.78,2.2-19.4t2.19-19.49A28.88,28.88,0,0,1,455.62,162a22.6,22.6,0,0,1,11.72,2.92q4.94,2.94,4.94,9.89a111,111,0,0,1-.82,11.44q-.82,7.41-2.2,16.56c-.91,6.1-2,12.51-3.2,19.22s-2.5,13.12-3.85,19.22-2.71,11.62-4.11,16.56a86.2,86.2,0,0,1-3.94,11.44q-2.75,2.56-9,4.21a49.78,49.78,0,0,1-12.81,1.65,40.54,40.54,0,0,1-14.55-2.29q-6-2.28-7.23-6.5-2.39-7.32-5.13-17.39t-5.85-22.14q-2.56,11.9-5.31,23.24t-4.94,19.22a20.76,20.76,0,0,1-8.24,4.21,41.86,41.86,0,0,1-12.08,1.65,45.76,45.76,0,0,1-14.92-2.29q-6.67-2.28-8.69-6.5a62.86,62.86,0,0,1-3.57-9.79q-1.92-6.49-3.93-14.82t-4.12-18q-2.11-9.7-3.85-19.4t-3.2-18.95q-1.47-9.24-2.2-16.93a25.8,25.8,0,0,1,7.14-4.39,24.32,24.32,0,0,1,9.89-2q6.94,0,11.44,3c3,2,4.85,5.4,5.58,10.15q2.92,18.68,4.85,31.12t3.11,20.41q1.19,8,1.74,12.35c.37,2.93.73,5.25,1.1,7h.91q1.65-7.32,3.11-13.55c1-4.14,2-8.33,3-12.54s2.11-8.72,3.21-13.54S381.92,196,383.14,189.82Z"/><path class="cls-5" d="M510.72,166a38.67,38.67,0,0,1,9.42-3.48,50.56,50.56,0,0,1,12.72-1.64,45.79,45.79,0,0,1,16.2,2.65q7.05,2.65,9.06,8.33,3.3,9.52,7.14,22.15T573,220.11q3.84,13.45,7.5,26.54t6.4,23.15a15.11,15.11,0,0,1-6.58,4.12,36.75,36.75,0,0,1-17.85.82,13.33,13.33,0,0,1-4.94-2.19,10.82,10.82,0,0,1-3.11-3.85,32.31,32.31,0,0,1-2.11-5.49L549,250.58H515.84q-1.47,5.49-2.93,11.35T510,273.28a47.28,47.28,0,0,1-5.4,1.55,31.44,31.44,0,0,1-6.86.64q-9.33,0-13.82-3.2a10.29,10.29,0,0,1-4.48-8.88,18.52,18.52,0,0,1,.73-5.12q.72-2.56,1.65-6,1.27-4.95,3.57-12.26t5-15.84q2.75-8.5,5.86-17.48t5.85-16.93q2.75-8,5-14.18T510.72,166Zm22,23.61q-2.56,7.69-5.77,17.12t-5.76,19.12h22.69q-2.57-9.88-5.21-19.31t-4.85-16.93Z"/><path class="cls-5" d="M590.34,188.35a23.28,23.28,0,0,1-2.38-5.49,23.94,23.94,0,0,1-1.1-7.32q0-7.14,3.2-10.25a11.46,11.46,0,0,1,8.33-3.11h79.8a23.7,23.7,0,0,1,2.38,5.49,24.25,24.25,0,0,1,1.1,7.32q0,7.14-3.21,10.25a11.41,11.41,0,0,1-8.32,3.11H649.82v84.56a50.83,50.83,0,0,1-6.31,1.1,66.57,66.57,0,0,1-8.52.55,38,38,0,0,1-7.41-.64,13.25,13.25,0,0,1-5.4-2.29,9.9,9.9,0,0,1-3.29-4.57,22.42,22.42,0,0,1-1.1-7.69v-71Z"/><path class="cls-5" d="M697.22,179.75q0-7.87,4.58-12.45t12.45-4.57h60.4a22,22,0,0,1,2.28,5.31,23.65,23.65,0,0,1,1,7q0,7-3,9.88a10.92,10.92,0,0,1-8,2.93H728.34v17h41.18a22.29,22.29,0,0,1,2.29,5.21,22.8,22.8,0,0,1,1,6.86q0,7-2.93,9.89a10.66,10.66,0,0,1-7.87,2.93H728.34v19.21h47a22.71,22.71,0,0,1,2.29,5.31,23.76,23.76,0,0,1,1,7q0,7-3,10a10.72,10.72,0,0,1-8,3H714.25q-7.87,0-12.45-4.57t-4.58-12.45Z"/><path class="cls-5" d="M829.37,237.77v35.14a50.83,50.83,0,0,1-6.31,1.1,66.57,66.57,0,0,1-8.52.55,38,38,0,0,1-7.41-.64,12.52,12.52,0,0,1-5.31-2.29,10.19,10.19,0,0,1-3.2-4.57,22.42,22.42,0,0,1-1.1-7.69V173.16a8,8,0,0,1,2.11-5.95,15,15,0,0,1,5.76-3.38,68.86,68.86,0,0,1,14.46-3.21,145.33,145.33,0,0,1,17.57-1q25.26,0,38.07,10.61T888.31,199q0,11.34-5.86,19.4a42.11,42.11,0,0,1-13.91,12.45q6.59,9,13,16.83a108.83,108.83,0,0,1,10.07,14.28,17.24,17.24,0,0,1-6.68,9.79A18.55,18.55,0,0,1,874,275.11a23.48,23.48,0,0,1-7-.92,16.72,16.72,0,0,1-5.12-2.56,21.06,21.06,0,0,1-4-4,51.48,51.48,0,0,1-3.47-5.12l-15.38-24.71Zm11.53-24.34q7,0,11-3.57t4-10.53q0-6.95-4.48-10.52c-3-2.38-7.72-3.57-14.19-3.57a42.33,42.33,0,0,0-4.39.18c-1.1.13-2.32.31-3.66.55v27.46Z"/><path class="cls-5" d="M985,246.37a17.71,17.71,0,0,1-6.14,3.21,28.84,28.84,0,0,1-8.69,1.19,30.74,30.74,0,0,1-10.89-1.65,8.74,8.74,0,0,1-5.58-5.68q-5.13-16.09-8.42-26.08t-5.13-17.48h-.91q-.56,10.8-.83,19.68t-.36,17.3q-.09,8.41-.37,17t-.82,19a33.1,33.1,0,0,1-6.22,1.56,47.59,47.59,0,0,1-7.69.64q-8.05,0-12.54-2.56t-4.48-9.34l5.3-93.34q1.47-2.38,6.41-5.13T931.5,162q9.71,0,15.19,3a17.84,17.84,0,0,1,8.06,9.79q1.63,4.4,3.56,10.06t3.85,11.72q1.92,6,3.75,12t3.29,10.7h.92q4.39-15.37,8.79-29.74T987,165.47a29.55,29.55,0,0,1,7-2.47,42.19,42.19,0,0,1,9.6-1q9,0,14.65,2.65t6.59,7.6q.72,3.66,1.55,11.25t1.74,17.11q.91,9.52,1.83,20.14t1.74,20.41q.82,9.79,1.37,17.93t.73,12.54a23.61,23.61,0,0,1-6.49,2.65,37.76,37.76,0,0,1-8.7.83,26.07,26.07,0,0,1-11.71-2.38c-3.18-1.59-4.88-4.7-5.13-9.34q-1.1-19.94-1.37-35.87t-.82-26.72h-.92q-1.83,7.14-5.3,17.94T985,246.37Z"/><path class="cls-5" d="M1086.16,272.91a50.83,50.83,0,0,1-6.31,1.1,66.53,66.53,0,0,1-8.51.55,38,38,0,0,1-7.42-.64,13.25,13.25,0,0,1-5.4-2.29,9.9,9.9,0,0,1-3.29-4.57,22.42,22.42,0,0,1-1.1-7.69V162.73c1.34-.25,3.48-.58,6.41-1a59.37,59.37,0,0,1,8.42-.64,38.74,38.74,0,0,1,7.41.64,13.25,13.25,0,0,1,5.4,2.29,9.9,9.9,0,0,1,3.29,4.57,22.18,22.18,0,0,1,1.1,7.69Z"/><path class="cls-5" d="M1104.83,188.35a23.28,23.28,0,0,1-2.38-5.49,24.25,24.25,0,0,1-1.1-7.32q0-7.14,3.21-10.25a11.45,11.45,0,0,1,8.32-3.11h79.8a23.28,23.28,0,0,1,2.38,5.49,23.94,23.94,0,0,1,1.1,7.32q0,7.14-3.2,10.25a11.43,11.43,0,0,1-8.33,3.11h-20.32v84.56A50.48,50.48,0,0,1,1158,274a66.53,66.53,0,0,1-8.51.55,37.8,37.8,0,0,1-7.41-.64,13.14,13.14,0,0,1-5.4-2.29,9.85,9.85,0,0,1-3.3-4.57,22.42,22.42,0,0,1-1.1-7.69v-71Z"/><path class="cls-5" d="M1228,166a38.78,38.78,0,0,1,9.43-3.48,50.51,50.51,0,0,1,12.72-1.64,45.79,45.79,0,0,1,16.2,2.65q7,2.65,9.06,8.33,3.28,9.52,7.13,22.15t7.69,26.08q3.84,13.45,7.5,26.54t6.41,23.15a15.09,15.09,0,0,1-6.59,4.12,31.48,31.48,0,0,1-10.43,1.55,31.85,31.85,0,0,1-7.41-.73,13.38,13.38,0,0,1-5-2.19,10.82,10.82,0,0,1-3.11-3.85,33.19,33.19,0,0,1-2.1-5.49l-3.3-12.63h-33.13q-1.45,5.49-2.92,11.35t-2.93,11.35a47.28,47.28,0,0,1-5.4,1.55,31.44,31.44,0,0,1-6.86.64q-9.35,0-13.82-3.2a10.27,10.27,0,0,1-4.49-8.88,18.9,18.9,0,0,1,.73-5.12q.74-2.56,1.65-6,1.28-4.95,3.57-12.26t5-15.84q2.74-8.5,5.86-17.48t5.86-16.93q2.74-8,5-14.18T1228,166Zm22,23.61q-2.57,7.69-5.76,17.12t-5.77,19.12h22.7q-2.57-9.88-5.22-19.31t-4.85-16.93Z"/></g></svg>