<svg xmlns="http://www.w3.org/2000/svg" xmlns:xlink="http://www.w3.org/1999/xlink" viewBox="0 0 658.53 179.07"><defs><style>.cls-1{fill:url(#linear-gradient);}.cls-2{fill:#08082b;}.cls-3{fill:url(#linear-gradient-2);}</style><linearGradient id="linear-gradient" x1="103.08" y1="92.83" x2="170.86" y2="92.83" gradientTransform="translate(-22.86 50.03) rotate(-19.14)" gradientUnits="userSpaceOnUse"><stop offset="0" stop-color="#2e3192"/><stop offset="0.78" stop-color="#662d91"/></linearGradient><linearGradient id="linear-gradient-2" x1="421.74" y1="91.3" x2="489.52" y2="91.3" gradientTransform="translate(-4.75 154.41) rotate(-19.14)" xlink:href="#linear-gradient"/></defs><g id="Logo"><rect class="cls-1" x="125.94" y="12.08" width="22.06" height="161.5" rx="11.03" transform="translate(38 -39.77) rotate(19.14)"/><rect class="cls-2" x="32.07" y="12.08" width="22.06" height="161.5" rx="11.03" transform="translate(-29.28 20.47) rotate(-20.1)"/><rect class="cls-2" x="78.45" y="12.08" width="22.06" height="161.5" rx="11.03" transform="translate(-26.46 36.41) rotate(-20.1)"/><rect class="cls-3" x="444.6" y="10.55" width="22.06" height="161.5" rx="11.03" transform="translate(55.11 -144.32) rotate(19.14)"/><rect class="cls-2" x="397.12" y="10.55" width="22.06" height="161.5" rx="11.03" transform="translate(-6.52 145.85) rotate(-20.1)"/><rect class="cls-2" x="567.57" y="-35.74" width="22.92" height="133" rx="11.46" transform="translate(609.79 -548.27) rotate(90)"/><rect class="cls-2" x="558.33" y="35.25" width="22.92" height="114.52" rx="11.46" transform="translate(662.29 -477.28) rotate(90)"/><rect class="cls-2" x="567.57" y="85.35" width="22.92" height="133" rx="11.46" transform="translate(730.88 -427.18) rotate(90)"/><path class="cls-2" d="M271.93,13.22a78.85,78.85,0,1,0,78.84,78.85A78.85,78.85,0,0,0,271.93,13.22Zm0,134.45a55.6,55.6,0,1,1,55.61-55.6A55.6,55.6,0,0,1,271.93,147.67Z"/></g></svg>