<svg xmlns="http://www.w3.org/2000/svg" xmlns:xlink="http://www.w3.org/1999/xlink" viewBox="0 0 4459.26 4060.86"><defs><style>.cls-1{isolation:isolate;}.cls-2{fill:#fff;}.cls-12,.cls-3,.cls-4,.cls-5{fill-rule:evenodd;}.cls-3{fill:url(#_ÂÁ_Ï_ÌÌ_È_ËÂÌÚ_32);}.cls-4{fill:url(#_ÂÁ_Ï_ÌÌ_È_ËÂÌÚ_63);}.cls-5{fill:url(#_ÂÁ_Ï_ÌÌ_È_ËÂÌÚ_66);}.cls-6{fill:#00a9ff;}.cls-7{fill:#2cfdff;}.cls-10,.cls-11,.cls-12,.cls-8,.cls-9{mix-blend-mode:screen;}.cls-8{fill:url(#_ÂÁ_Ï_ÌÌ_È_ËÂÌÚ_53);}.cls-9{fill:url(#_ÂÁ_Ï_ÌÌ_È_ËÂÌÚ_53-2);}.cls-10{fill:url(#_ÂÁ_Ï_ÌÌ_È_ËÂÌÚ_53-3);}.cls-11{fill:url(#_ÂÁ_Ï_ÌÌ_È_ËÂÌÚ_53-4);}.cls-12{fill:url(#radial-gradient);}.cls-13{fill:#cfffff;}.cls-14{fill:#b0f4f6;}</style><radialGradient id="_ÂÁ_Ï_ÌÌ_È_ËÂÌÚ_32" cx="466.5" cy="2905.27" r="619.93" gradientTransform="matrix(0.59, -0.73, 0.64, 0.68, -238.73, 597.02)" gradientUnits="userSpaceOnUse"><stop offset="0" stop-color="#413482"/><stop offset="1" stop-color="#2c163c"/></radialGradient><radialGradient id="_ÂÁ_Ï_ÌÌ_È_ËÂÌÚ_63" cx="1225.69" cy="2846.63" r="618.07" gradientTransform="matrix(0.59, -0.73, 0.64, 0.68, -238.73, 597.02)" gradientUnits="userSpaceOnUse"><stop offset="0" stop-color="#6b43cd"/><stop offset="1" stop-color="#4838d1"/></radialGradient><radialGradient id="_ÂÁ_Ï_ÌÌ_È_ËÂÌÚ_66" cx="3310.94" cy="1536.11" r="545.18" gradientTransform="matrix(0.83, 0.28, -0.24, 0.96, 250.86, -107.09)" gradientUnits="userSpaceOnUse"><stop offset="0" stop-color="#231460"/><stop offset="1" stop-color="#1f012e"/></radialGradient><radialGradient id="_ÂÁ_Ï_ÌÌ_È_ËÂÌÚ_53" cx="2709.59" cy="1796.53" r="203.83" gradientUnits="userSpaceOnUse"><stop offset="0" stop-color="#0031ff"/><stop offset="0.28" stop-color="#0021aa"/><stop offset="0.54" stop-color="#001361"/><stop offset="0.75" stop-color="#00092d"/><stop offset="0.91" stop-color="#00020c"/><stop offset="1"/></radialGradient><radialGradient id="_ÂÁ_Ï_ÌÌ_È_ËÂÌÚ_53-2" cx="2189.97" cy="2326.14" r="203.83" gradientTransform="translate(2286.25 -867.23) rotate(45)" xlink:href="#_ÂÁ_Ï_ÌÌ_È_ËÂÌÚ_53"/><radialGradient id="_ÂÁ_Ï_ÌÌ_È_ËÂÌÚ_53-3" cx="1962.96" cy="1803.11" r="156.27" gradientTransform="translate(3447.3 -410.75) rotate(81.27)" xlink:href="#_ÂÁ_Ï_ÌÌ_È_ËÂÌÚ_53"/><radialGradient id="_ÂÁ_Ï_ÌÌ_È_ËÂÌÚ_53-4" cx="2507.65" cy="2434.51" r="156.27" gradientTransform="translate(4235.21 -603.69) rotate(75.47)" xlink:href="#_ÂÁ_Ï_ÌÌ_È_ËÂÌÚ_53"/><radialGradient id="radial-gradient" cx="2265.25" cy="2008.41" r="844.39" gradientUnits="userSpaceOnUse"><stop offset="0.25"/><stop offset="0.51" stop-color="#000102"/><stop offset="0.61" stop-color="#010409"/><stop offset="0.69" stop-color="#020915"/><stop offset="0.75" stop-color="#041027"/><stop offset="0.8" stop-color="#061a3d"/><stop offset="0.85" stop-color="#092559"/><stop offset="0.89" stop-color="#0c337a"/><stop offset="0.93" stop-color="#1043a1"/><stop offset="0.97" stop-color="#1455cc"/><stop offset="1" stop-color="#1968f9"/></radialGradient></defs><g class="cls-1"><g id="Layer_1" data-name="Layer 1"><polygon class="cls-2" points="2135.29 4060.86 2230.38 3767.79 2108.16 3736.46 1974.28 3649.14 1953.41 3464.41 2128.88 3362.41 2108.16 3250.05 2176.48 3200.21 2194.16 3129.85 2224.93 2902.85 2235.33 2894.08 2224.93 3034.66 2176.48 3220.56 2145 3249.09 2163.01 3386.73 2135.29 3415.36 2108.16 3435.62 2062.82 3684.19 2100.71 3710.04 2176.46 3736.46 2293.78 3704.45 2334.77 3738.67 2208.56 3910.43 2176.48 4037.09 2174.15 4060.8 2135.29 4060.86"/><polygon class="cls-2" points="2170.28 1148.68 2165.75 1113.98 2250.57 1038.31 2192.03 946.78 2122.04 952.1 2108.16 886.14 2157.58 819.23 2299.53 785.98 2373.5 714.38 2373.5 665.55 2344.87 640.29 2224.61 626.51 2122.04 507.29 1968.34 247.54 1921.96 146.82 1952.41 4.43 2168.67 0 2046.8 48.64 1983.34 162.48 2046.8 339.4 2139.54 515.68 2229.53 598.32 2322.78 574.22 2434.21 574.22 2520.51 657.13 2406.81 753.67 2298.91 835.62 2193.64 835.62 2157.96 860.88 2157.96 901.29 2221.23 952.1 2299.53 1026.73 2325.39 1088.68 2340.07 1196.87 2221.97 1113.98 2170.28 1148.68"/><polygon class="cls-2" points="2221.23 1088.68 2046.8 1206.82 1816.45 1375.81 1736.44 1395.55 1589.29 1481.64 1527.1 1521.4 1479.75 1595.04 1445.67 1650.63 1470.37 1736.27 1493.94 1764.8 1474.06 2107.7 1432.23 2441.67 1491.93 2507.48 1551.19 2529.97 1721.58 2655.59 1818.5 2664.95 2147.76 2884.99 2224.61 2929.09 2392.86 2795.62 2514.32 2695.42 2605.4 2628.71 2743.48 2555.19 2779.32 2480.65 2786.05 2405.15 2834.28 2313.91 2936.97 2077.59 3042.16 1799.28 3079.08 1699.67 2891.42 1513.03 2591.93 1347.17 2504.37 1296.14 2393.8 1231.51 2307.78 1122.24 2221.23 1088.68"/><polygon class="cls-3" points="2224.93 2902.85 1474.06 2428.59 1541.4 1570.88 2432.75 2175.5 2224.93 2902.85"/><polygon class="cls-4" points="1541.4 1570.88 2221.97 1113.98 3056.43 1699.67 2432.75 2175.5 1541.4 1570.88"/><polygon class="cls-5" points="3056.43 1699.67 2736.06 2520.7 2224.93 2902.85 2404.16 2156.11 3056.43 1699.67"/><polygon class="cls-6" points="2233.17 1761.4 1775.29 1447.57 1791.36 1436.78 2248.85 1750.62 2233.17 1761.4"/><polygon class="cls-6" points="2073.46 1531.98 1909.52 1419.06 1950.69 1391.35 2114.27 1504.28 2073.46 1531.98"/><polygon class="cls-6" points="2379.63 1290.41 2331.94 1322.74 2246.67 1380.53 2139.84 1306.04 2084.61 1267.51 2218.65 1177.52 2379.63 1290.41"/><polygon class="cls-6" points="2061.03 1776.59 2012.94 1809.59 1974.55 1835.99 1920.39 1799.35 1864.89 1761.63 1951.92 1702.22 2061.03 1776.59"/><polygon class="cls-6" points="2799.93 1765.81 2752.78 1798.81 2715.06 1825.22 2662.12 1788.57 2607.7 1750.72 2693.1 1691.45 2799.93 1765.81"/><polygon class="cls-6" points="2537.75 1851.78 2373.8 1738.85 2413.93 1711.16 2577.51 1824.09 2537.75 1851.78"/><polygon class="cls-6" points="2458.66 2015.47 2293.25 1902.57 2333.21 1874.88 2498.25 1987.78 2458.66 2015.47"/><polygon class="cls-6" points="2627.24 1913.42 2576.82 1878.69 2616.5 1851.01 2666.8 1885.74 2627.24 1913.42"/><polygon class="cls-6" points="2358.31 1784.34 2307.78 1749.62 2347.97 1721.92 2398.38 1756.65 2358.31 1784.34"/><polygon class="cls-6" points="2240.83 1865.52 2189.97 1830.8 2230.15 1803.11 2280.9 1837.83 2240.83 1865.52"/><polygon class="cls-7" points="2331.94 1322.74 2246.67 1380.53 2139.84 1306.04 2225.65 1248.24 2331.94 1322.74"/><polygon class="cls-7" points="2012.94 1809.59 1974.55 1835.99 1920.39 1799.35 1959.06 1772.95 2012.94 1809.59"/><polygon class="cls-7" points="2752.78 1798.81 2715.06 1825.22 2662.12 1788.57 2700.11 1762.17 2752.78 1798.81"/><polygon class="cls-6" points="1800.78 2555.19 2184.68 2798.35 2179.53 2819.8 1797.56 2578.55 1800.78 2555.19"/><polygon class="cls-6" points="2057.25 2431.13 2203.28 2526.45 2190.55 2582.01 2046.3 2488.44 2057.25 2431.13"/><polygon class="cls-6" points="2280.88 2304.93 2255.83 2411.62 2242.49 2467.93 2238.58 2484.77 2102.12 2395.05 2090.8 2387.64 2127.31 2202.14 2160.59 2224.5 2280.88 2304.93"/><polygon class="cls-6" points="1660.27 2350.73 1654.74 2405.15 1646.66 2483.29 1556.13 2426.03 1567.18 2291.05 1608.94 2317.86 1660.27 2350.73"/><polygon class="cls-6" points="1841.05 2322.71 1832.7 2382.52 1708.09 2301.96 1689.36 2289.84 1689.77 2285.93 1695.96 2228.28 1841.05 2322.71"/><polygon class="cls-6" points="1594.38 1865.11 1747.44 1967.41 1740.58 2028.79 1589.29 1928.24 1594.38 1865.11"/><polygon class="cls-6" points="1564.01 2109.13 1608.91 2138.44 1603.4 2201.16 1559.04 2172.39 1564.01 2109.13"/><polygon class="cls-6" points="1796.63 2001.8 1843.69 2033.25 1835.71 2093.52 1789.2 2062.61 1796.63 2001.8"/><polygon class="cls-7" points="2280.88 2304.93 2255.83 2411.62 2138.9 2334.83 2160.59 2224.5 2280.88 2304.93"/><polygon class="cls-7" points="1608.94 2317.86 1660.27 2350.73 1654.74 2405.15 1604.36 2373.36 1608.94 2317.86"/><polygon class="cls-6" points="2776.06 1950.36 2426.94 2194.67 2432.7 2172.39 2783.86 1927.4 2776.06 1950.36"/><polygon class="cls-6" points="2528.16 2282.95 2510.5 2341.26 2392.86 2426.49 2405.57 2380.11 2408.55 2368.93 2484.44 2314.49 2528.16 2282.95"/><polygon class="cls-6" points="2394.46 2613.37 2350.89 2740.7 2283.02 2793.31 2299.73 2741.44 2323.72 2667.11 2347.05 2649.41 2394.46 2613.37"/><polygon class="cls-6" points="2575.03 2339.94 2533.71 2466.2 2460.88 2520.7 2476.21 2471.17 2499.53 2395.38 2529.41 2373.46 2575.03 2339.94"/><polygon class="cls-6" points="3001.19 1775.37 2951.27 1904.1 2872.76 1960.05 2891.42 1909.77 2920.11 1832.11 2952.88 1809.24 3001.19 1775.37"/><polygon class="cls-6" points="2828.17 2044.73 2805.97 2104.58 2689.73 2188.72 2706.88 2138.98 2710.18 2129.56 2780.08 2079.35 2828.17 2044.73"/><polygon class="cls-6" points="2820.69 2243.17 2796.29 2303.89 2689.45 2384.65 2709.59 2331.36 2712.05 2324.65 2769.28 2281.69 2820.69 2243.17"/><polygon class="cls-6" points="2677.25 2349.64 2674.19 2358 2655.36 2409.43 2622.15 2434.51 2643.61 2374.79 2663.04 2360.25 2677.25 2349.64"/><polygon class="cls-7" points="2484.44 2314.49 2481.11 2325.23 2405.57 2380.11 2408.55 2368.93 2484.44 2314.49"/><polygon class="cls-7" points="2347.05 2649.41 2321.03 2724.97 2299.73 2741.44 2323.72 2667.11 2347.05 2649.41"/><polygon class="cls-7" points="2529.41 2373.46 2504.11 2450.3 2476.21 2471.17 2499.53 2395.38 2529.41 2373.46"/><polygon class="cls-7" points="2952.88 1809.24 2922.18 1887.89 2891.42 1909.77 2920.11 1832.11 2952.88 1809.24"/><polygon class="cls-7" points="2780.08 2079.35 2776.69 2088.48 2706.88 2138.98 2710.18 2129.56 2780.08 2079.35"/><polygon class="cls-7" points="2663.04 2360.25 2677.25 2349.64 2674.19 2358 2659.83 2368.89 2663.04 2360.25"/><polygon class="cls-7" points="2769.28 2281.69 2766.71 2288.11 2709.59 2331.36 2712.05 2324.65 2769.28 2281.69"/><circle class="cls-8" cx="2709.59" cy="1796.53" r="203.83"/><circle class="cls-9" cx="2189.97" cy="2326.14" r="203.83" transform="translate(-1003.4 2229.85) rotate(-45)"/><circle class="cls-10" cx="1962.96" cy="1803.11" r="156.27" transform="translate(-117.16 3469.71) rotate(-81.27)"/><circle class="cls-11" cx="2507.65" cy="2434.51" r="156.27" transform="translate(-478.11 4251.21) rotate(-75.47)"/><polygon class="cls-12" points="2221.97 1113.98 1541.4 1570.88 1474.06 2428.59 2224.93 2902.85 2736.07 2520.7 3056.43 1699.67 2221.97 1113.98"/><polygon class="cls-2" points="2108.16 3250.05 2078.37 3174.68 1978.45 3145.72 1921.96 3021.75 1786.39 2922.54 1860.01 2792.86 1843.69 2719.74 1686.8 2562.96 1729.31 2589.8 1747.93 2613.37 1818.5 2682.02 1850.03 2701.8 1873.38 2787.26 1865.8 2825.14 1897.48 2825.14 1928.11 2779.76 1953.41 2731.35 1978.45 2747.16 1953.41 2748.53 1928.11 2793.31 1889.96 2842.83 1841.57 2846.2 1815.53 2885.77 1815.53 2915.99 1860.01 2941.34 1939.88 2959.86 1983.34 3066.39 1991.12 3117.19 1991.12 3134.67 2032.57 3145.72 2078.37 3147.24 2136.91 3149.16 2147.76 3221.16 2108.16 3250.05"/><polygon class="cls-13" points="2224.93 3034.66 2334.77 2902.85 2375.18 2869.78 2454.42 2801.97 2495.92 2700.24 2460.51 2726.72 2454.42 2770.1 2414.47 2819.8 2338.78 2879.88 2263.86 2966.32 2224.93 2975.3 2224.93 3034.66"/><polygon class="cls-2" points="2248.47 976.03 2522.39 1208.34 2670.43 1296.14 2767.9 1497.16 2689.66 1436.78 2672.67 1338.55 2656.96 1303.74 2591.93 1271.5 2471.82 1177.52 2379.63 1101.36 2319.92 1075.57 2271.9 1026.73 2248.47 976.03"/><path class="cls-2" d="M2190.47,2917.57l-179.76-80.64-59.36-85.45-109.49-28.9-68-43.9L1663,2646.16l-.61-.63L1560,2540.6l-46.73-30.94L1472,2497.49l-71.26-54.15.28-129.94,69.52-158.67-21.59-116,0-.48,21.7-213.35-7.82-102.58,7.86-160.28,99.71-110.81,216.51-107,98.28-23.24,56.19-71.68,89.07-138.29,205.76-39.34,35.4,27.08,35.91,33.23,238.88,205.73,241.31,143.21,178.45,79.45,128.95,59.3,54.6,116.48L3115.64,1764l-20.27,11.29-75,197-56.16,106.85-151.74,283.31-9.14,109-14.14,85.68-1.16.81-164.25,115.74-248.22,148L2246,2873Zm-175.3-86,174.29,78.17,53.54-42.85,129.57-51.28L2620.09,2668,2783,2553.24l13.65-82.62,9.55-110.71L2958.21,2076l56-106.45,75.75-199,21.93-12.14,29.58-24.27-51.33-109.5-126.67-58.26-178.77-79.61-242.14-143.73L2303.1,1136.94l-35.77-33.11-32.75-25-200,38.23-87.69,136.11-57.83,73.8-99.86,23.52L1574,1457l-96.66,107.79-7.75,157.46,7.81,102.76-21.66,213.45,21.79,117.14-70.06,159.92V2440l68.1,51.74,41,12,47.71,31.68,102.35,104.74,110.48,32.58,68,43.87,110.39,29,.71,1Z"/><circle class="cls-14" cx="2360.52" cy="1630.63" r="8.37"/><path class="cls-14" d="M3572.21,1779.41a8.37,8.37,0,1,1-8.37,8.37A8.37,8.37,0,0,1,3572.21,1779.41Z"/><circle class="cls-14" cx="3656.82" cy="3840.91" r="8.37"/><path class="cls-14" d="M3262.17,1443.7a8.37,8.37,0,1,1-8.37,8.36A8.36,8.36,0,0,1,3262.17,1443.7Z"/><circle class="cls-14" cx="3518.96" cy="963.39" r="8.37"/><circle class="cls-14" cx="1748.18" cy="1962.34" r="8.37"/><path class="cls-14" d="M3616.59,1282.44a2.2,2.2,0,1,1-2.2,2.19A2.19,2.19,0,0,1,3616.59,1282.44Z"/><path class="cls-14" d="M3548.66,1700.22a2.2,2.2,0,1,1-2.2,2.2A2.2,2.2,0,0,1,3548.66,1700.22Z"/><circle class="cls-14" cx="3416.03" cy="1228.8" r="2.2"/><path class="cls-14" d="M3752.85,1696.62a2.2,2.2,0,1,1-2.19,2.2A2.2,2.2,0,0,1,3752.85,1696.62Z"/><path class="cls-14" d="M3644.61,1979.39a2.2,2.2,0,1,1-2.2,2.19A2.19,2.19,0,0,1,3644.61,1979.39Z"/><path class="cls-14" d="M3975.11,1220.43a2.2,2.2,0,1,1-2.2,2.2A2.2,2.2,0,0,1,3975.11,1220.43Z"/><circle class="cls-14" cx="3944.57" cy="1384.9" r="2.2"/><path class="cls-14" d="M3790.58,1578.22a4.36,4.36,0,1,1-4.36,4.36A4.36,4.36,0,0,1,3790.58,1578.22Z"/><path class="cls-14" d="M3967.44,1773.26a4.36,4.36,0,1,1-4.36,4.36A4.36,4.36,0,0,1,3967.44,1773.26Z"/><path class="cls-14" d="M3829.37,1354.48a4.36,4.36,0,1,1-4.35,4.35A4.36,4.36,0,0,1,3829.37,1354.48Z"/><path class="cls-14" d="M3350.05,1420.66a4.36,4.36,0,1,1-4.35,4.36A4.36,4.36,0,0,1,3350.05,1420.66Z"/><path class="cls-14" d="M3794.76,1010.17a4.36,4.36,0,1,1-4.36,4.36A4.35,4.35,0,0,1,3794.76,1010.17Z"/><circle class="cls-14" cx="576.35" cy="2349.64" r="9.51"/><circle class="cls-14" cx="2447.48" cy="2996.12" r="9.51"/><path class="cls-14" d="M1059.65,1884.39a9.52,9.52,0,1,1,9.51-9.51A9.51,9.51,0,0,1,1059.65,1884.39Z"/><circle class="cls-14" cx="973.15" cy="482.28" r="9.51"/><circle class="cls-14" cx="663.28" cy="3155.17" r="9.51"/><path class="cls-14" d="M1422,3208.73a9.52,9.52,0,1,1,9.51-9.52A9.51,9.51,0,0,1,1422,3208.73Z"/><circle class="cls-14" cx="1129.94" cy="3755" r="9.51"/><circle class="cls-14" cx="3143.92" cy="2618.85" r="9.51"/><path class="cls-14" d="M585.86,3144.15a9.52,9.52,0,1,1,9.52-9.51A9.51,9.51,0,0,1,585.86,3144.15Z"/><path class="cls-14" d="M1018.9,3392.14a2.5,2.5,0,1,1,2.5-2.5A2.5,2.5,0,0,1,1018.9,3392.14Z"/><path class="cls-14" d="M1096.16,2917a2.5,2.5,0,1,1,2.5-2.5A2.5,2.5,0,0,1,1096.16,2917Z"/><circle class="cls-14" cx="1247" cy="3453.14" r="2.5"/><path class="cls-14" d="M863.92,2921.06a2.5,2.5,0,1,1,2.5-2.5A2.5,2.5,0,0,1,863.92,2921.06Z"/><path class="cls-14" d="M987,2599.47a2.5,2.5,0,1,1,2.5-2.5A2.5,2.5,0,0,1,987,2599.47Z"/><path class="cls-14" d="M611.14,3462.66a2.5,2.5,0,1,1,2.5-2.5A2.5,2.5,0,0,1,611.14,3462.66Z"/><circle class="cls-14" cx="645.87" cy="3275.6" r="2.5"/><path class="cls-14" d="M821,3055.73a5,5,0,1,1,5-5A5,5,0,0,1,821,3055.73Z"/><path class="cls-14" d="M619.87,2833.9a5,5,0,1,1,5-5A5,5,0,0,1,619.87,2833.9Z"/><path class="cls-14" d="M776.89,3310.2a5,5,0,1,1,5-4.95A4.95,4.95,0,0,1,776.89,3310.2Z"/><path class="cls-14" d="M1322,3234.92a5,5,0,1,1,5-5A4.95,4.95,0,0,1,1322,3234.92Z"/><path class="cls-14" d="M816.26,3701.8a5,5,0,1,1,5-5A5,5,0,0,1,816.26,3701.8Z"/></g></g></svg>