<?xml version="1.0" encoding="utf-8"?>
<!-- Generator: Adobe Illustrator 25.4.1, SVG Export Plug-In . SVG Version: 6.00 Build 0)  -->
<svg version="1.1" xmlns="http://www.w3.org/2000/svg" xmlns:xlink="http://www.w3.org/1999/xlink" x="0px" y="0px"
	 viewBox="0 0 1225 409" style="enable-background:new 0 0 1225 409;" xml:space="preserve">
<style type="text/css">
	.st0{fill:#838AA2;}
	.st1{fill:#E6E8EF;}
	.st2{fill:#CACCD4;}
</style>
<g id="Bg">
	<g>
		<path class="st0" d="M481.7,262.2l-8.9-26.7H436l-8.6,26.7h-16.2l33.6-98.5h20l33.6,98.5H481.7z M454.7,178.4H454l-14.3,43.5h29.1
			L454.7,178.4z"/>
		<path class="st0" d="M503.1,188.8h15l7.5,30.8l6.6,27.8h0.4l7.6-27.8l8.9-30.8H563l9,30.8l7.8,27.8h0.4l6.5-27.8l7.6-30.8h14.3
			l-19.8,73.4h-17.4l-9.6-33.4l-5.9-20.6h-0.3l-5.8,20.6l-9.7,33.4h-16.9L503.1,188.8z"/>
		<path class="st0" d="M675.4,262.2c-4,0-7.1-1.2-9.3-3.5c-2.2-2.3-3.5-5.2-4-8.8h-0.7c-1.4,4.6-4,8.1-7.8,10.4
			c-3.8,2.4-8.3,3.5-13.7,3.5c-7.6,0-13.5-2-17.6-5.9c-4.1-4-6.1-9.3-6.1-15.9c0-7.3,2.7-12.8,8-16.5c5.3-3.7,13.1-5.5,23.4-5.5
			h13.3v-6.2c0-4.5-1.2-8-3.7-10.4c-2.4-2.4-6.3-3.7-11.4-3.7c-4.3,0-7.9,0.9-10.6,2.8c-2.7,1.9-5,4.3-6.9,7.2l-9.2-8.3
			c2.4-4.1,5.9-7.5,10.3-10.2c4.4-2.7,10.2-4,17.4-4c9.5,0,16.8,2.2,21.9,6.6c5.1,4.4,7.6,10.8,7.6,19v36.8h7.8v12.6H675.4z
			 M644.4,252.2c4.8,0,8.7-1.1,11.9-3.2s4.7-5,4.7-8.5v-10.6h-13c-10.6,0-15.9,3.3-15.9,9.9v2.5c0,3.3,1.1,5.8,3.3,7.4
			C637.5,251.3,640.5,252.2,644.4,252.2z"/>
		<path class="st0" d="M699.1,262.2v-73.4h15.4v14.1h0.7c1-3.8,3.2-7.1,6.5-9.9c3.3-2.8,7.9-4.2,13.7-4.2h4.1v14.8h-6.1
			c-6.1,0-10.8,1-14,3c-3.2,2-4.9,4.9-4.9,8.7v46.8H699.1z"/>
		<path class="st0" d="M798.6,250h-0.7c-1.6,4.3-4.2,7.7-7.8,10.2c-3.6,2.4-7.9,3.7-12.8,3.7c-9.3,0-16.5-3.4-21.6-10.1
			c-5.1-6.7-7.6-16.2-7.6-28.3c0-12.1,2.5-21.6,7.6-28.3c5.1-6.7,12.3-10.1,21.6-10.1c4.9,0,9.1,1.2,12.8,3.6
			c3.6,2.4,6.2,5.8,7.8,10.2h0.7v-43.2H814v104.4h-15.4V250z M782,250.6c4.7,0,8.7-1.2,11.9-3.5c3.2-2.3,4.8-5.3,4.8-9.1v-25.1
			c0-3.8-1.6-6.8-4.8-9.1c-3.2-2.3-7.1-3.5-11.9-3.5c-5.4,0-9.6,1.7-12.8,5.2c-3.2,3.4-4.8,8-4.8,13.6v12.7c0,5.6,1.6,10.2,4.8,13.6
			C772.3,248.9,776.6,250.6,782,250.6z"/>
	</g>
</g>
<g id="Object">
	<g>
		<path class="st1" d="M332,185.3c1.4-1.2,1.7-2.1,1.7-2.2c-0.1-0.1-0.6-0.8-2.4-1.4l-26.2-8.8c-5.1-1.7-9.1-5.3-11.4-10.1
			c-2.2-4.8-2.4-10.2-0.4-15.2l10.1-25.7c0.7-1.7,0.5-2.6,0.4-2.8c-0.1-0.1-1.3-0.4-2.8-0.1l-27.3,4.4c-11.1,1.8-21-6.1-22.2-16.9
			l-3-27.5c-0.2-1.8-0.8-2.6-0.9-2.7c-0.2,0-1.1,0.1-2.5,1.2l-22.1,16.6c-3.4,2.5-7.4,3.9-11.6,3.9c-6.4,0-12.3-3.2-15.9-8.5
			l-15.4-22.9c-1-1.5-1.9-1.9-2-1.9c-0.1,0-0.9,0.5-1.7,2.2l-11.9,25c-3.2,6.8-9.8,11-17.3,11c-3.2,0-6.4-0.8-9.2-2.4l-24.3-13.1
			c-1.3-0.7-2.1-0.8-2.4-0.8c-0.4,0.1-0.8,0.9-0.7,2.8l1.1,27.6c0.2,5.3-1.7,10.3-5.3,14.1c-3.6,3.8-8.6,5.9-13.9,5.9l-27.9-0.3
			c-1.9,0-2.6,0.5-2.7,0.6c0,0.1-0.1,1,0.9,2.6l13.8,23.9c2.7,4.6,3.3,10,1.8,15.1c-1.5,5.1-5,9.2-9.8,11.7L44.1,203
			c-1.7,0.8-2.1,1.6-2.2,1.8c0,0.1,0.4,1,2,1.9l23.3,14.8c4.5,2.9,7.6,7.3,8.6,12.5c1,5.2-0.1,10.5-3.2,14.9l-16,22.5
			c-1.1,1.5-1.1,2.4-1.1,2.6c0.1,0.1,0.8,0.6,2.7,0.8l27.5,2.2c5.4,0.4,10.1,2.9,13.4,7.1c3.3,4.1,4.8,9.3,4,14.6l-3.7,27.4
			c-0.2,1.8,0.1,2.7,0.2,2.8l0.4,0c0.4,0,1.1-0.1,2.3-0.6l25.4-10.8c2.4-1,5-1.6,7.6-1.6c8.1,0,15.2,5,18,12.7l9.5,25.9
			c0.6,1.7,1.3,2.3,1.5,2.4c0.2,0,1-0.4,2.2-1.7l17.5-21.4c3.7-4.5,9.1-7.1,14.9-7.1c4.8,0,9.4,1.8,12.9,5l20.5,18.6
			c1.2,1.1,2.1,1.4,2.4,1.4c0.1-0.1,0.8-0.7,1.1-2.6l5.5-27.1c1.9-9.1,9.6-15.4,18.7-15.4c1.6,0,3.3,0.2,4.9,0.6l26.7,6.9
			c1.5,0.4,2.7,0.2,2.8,0.1c0.1-0.1,0.3-1-0.2-2.8l-7.7-26.5c-1.5-5.2-0.8-10.5,1.8-15.1c2.7-4.6,7-7.8,12.3-9l26.9-6.3
			c1.8-0.4,2.5-1.1,2.5-1.2c0-0.1-0.2-1-1.5-2.4l-19.1-19.9c-3.7-3.9-5.6-8.9-5.4-14.2c0.2-5.3,2.6-10.1,6.7-13.6L332,185.3z"/>
		<path class="st2" d="M339.7,194.2c4.4-3.8,6.4-8.7,5.5-13.4c-0.9-4.7-4.6-8.4-10.2-10.3l-26.2-8.8c-2-0.7-3.6-2.1-4.5-3.9
			c-0.9-1.8-0.9-4-0.1-5.9l10.1-25.7c2-5.1,1.7-10-0.8-13.7c-2.9-4.2-7.9-6.2-14.4-5.1l-27.3,4.4c-4.4,0.7-8.2-2.3-8.6-6.6l-3-27.4
			c-1-9.1-7-13.1-12.6-13.1c-3.2,0-6.5,1.2-9.5,3.5l-22.1,16.6c-3.4,2.6-8.4,1.7-10.7-1.8L190,60.1c-3.1-4.6-7.3-7.1-11.8-7.1
			c-5.1,0-9.6,3.2-12.3,8.9L154,86.8c-1.8,3.8-6.5,5.4-10.3,3.4l-24.3-13.1c-6.2-3.4-12.7-2.7-16.7,1.4c-1.8,1.9-4,5.4-3.8,11.4
			l1.1,27.6c0.1,2.1-0.6,4.1-2.1,5.5c-1.4,1.5-3.3,2.3-5.5,2.3l0,0l-27.9-0.3c-5.8,0-10.4,2.3-12.7,6.4c-2.4,4.1-2.1,9.3,0.8,14.4
			l13.8,23.9c1,1.8,1.3,3.9,0.7,5.9c-0.6,2-1.9,3.6-3.8,4.5l-24.6,12.5c-5.2,2.7-8.3,6.9-8.6,11.7c-0.2,4.8,2.5,9.3,7.4,12.4
			L61,231.4c1.8,1.1,3,2.9,3.4,4.9c0.4,2-0.1,4.1-1.3,5.8l-16,22.5c-3.4,4.8-4.2,10-2.1,14.3c2,4.3,6.5,7.1,12.4,7.5l27.5,2.2
			c2.1,0.2,4,1.1,5.3,2.7c1.3,1.6,1.8,3.6,1.5,5.7L88,324.5c-0.6,4.8,0.4,9.1,3,12.1c3.6,4.2,9.9,5.2,16.1,2.5l25.4-10.8
			c4-1.7,8.5,0.3,10,4.3l9.5,25.9c2.3,6.3,7,10.1,12.5,10.1c4.1,0,8.1-2.1,11.3-6l17.5-21.4c1.5-1.8,3.6-2.8,5.8-2.8
			c1.3,0,3.2,0.3,5,2l20.5,18.6c3.2,2.9,6.8,4.4,10.3,4.4c4.9,0,10.8-3.1,12.6-11.9l5.5-27.1c0.9-4.2,5-6.8,9.2-5.7l26.7,6.9
			c1.6,0.4,3.2,0.6,4.8,0.6c4.3,0,8-1.7,10.3-4.8c2.6-3.4,3.2-8.1,1.7-13.1l-7.7-26.5c-0.6-2-0.3-4.1,0.7-5.9c1-1.8,2.7-3,4.8-3.5
			l26.9-6.3c5.7-1.3,9.8-4.7,11.1-9.3c1.3-4.6-0.2-9.6-4.2-13.8l-19.1-19.9c-1.5-1.5-2.2-3.5-2.1-5.5c0.1-2,1-3.9,2.6-5.3
			L339.7,194.2z M309.8,231.2l19.1,19.9c1.3,1.3,1.5,2.2,1.5,2.4c-0.1,0.1-0.7,0.8-2.5,1.2L301,261c-5.2,1.2-9.6,4.4-12.3,9
			c-2.7,4.6-3.3,9.9-1.8,15.1l7.7,26.5c0.5,1.8,0.3,2.7,0.2,2.8c-0.1,0.1-1.4,0.3-2.8-0.1l-26.7-6.9c-1.6-0.4-3.3-0.6-4.9-0.6
			c-9.2,0-16.9,6.3-18.7,15.4l-5.5,27.1c-0.4,1.8-1,2.5-1.1,2.6c-0.3,0-1.2-0.3-2.4-1.4L212,331.7c-3.6-3.2-8.2-5-12.9-5
			c-5.8,0-11.2,2.6-14.9,7.1l-17.5,21.4c-1.1,1.4-2,1.7-2.2,1.7c-0.2-0.1-0.9-0.7-1.5-2.4l-9.5-25.9c-2.8-7.7-9.9-12.7-18-12.7
			c-2.6,0-5.2,0.5-7.6,1.6l-25.4,10.8c-1.2,0.5-1.9,0.6-2.3,0.6l-0.4,0c-0.1-0.1-0.5-1-0.2-2.8l3.7-27.4c0.7-5.3-0.7-10.5-4-14.6
			c-3.3-4.1-8.1-6.6-13.4-7.1l-27.5-2.2c-1.8-0.1-2.6-0.7-2.7-0.8c-0.1-0.2,0-1.1,1.1-2.6l16-22.5c3.1-4.4,4.2-9.7,3.2-14.9
			c-1-5.2-4.1-9.6-8.6-12.5l-23.3-14.8c-1.6-1-2-1.8-2-1.9c0-0.2,0.5-0.9,2.2-1.8l24.6-12.5c4.8-2.4,8.3-6.6,9.8-11.7
			c1.5-5.1,0.9-10.4-1.8-15.1l-13.8-23.9c-0.9-1.6-0.9-2.5-0.9-2.6c0.1-0.1,0.8-0.6,2.7-0.6l27.9,0.3c5.3,0,10.2-2.1,13.9-5.9
			c3.6-3.8,5.5-8.8,5.3-14.1l-1.1-27.6c-0.1-1.9,0.4-2.7,0.7-2.8c0.3,0,1.1,0.1,2.4,0.8l24.3,13.1c2.8,1.5,6,2.4,9.2,2.4
			c7.4,0,14.1-4.2,17.3-11l11.9-25c0.8-1.7,1.6-2.2,1.7-2.2c0.2,0,1,0.4,2,1.9l15.4,22.9c3.6,5.4,9.5,8.5,15.9,8.5
			c4.2,0,8.2-1.3,11.6-3.9l22.1-16.6c1.5-1.1,2.3-1.2,2.5-1.2c0.1,0.1,0.7,0.8,0.9,2.7l3,27.5c1.2,10.8,11.1,18.7,22.2,16.9
			l27.3-4.4c1.5-0.3,2.7,0.1,2.8,0.1c0.1,0.2,0.2,1.1-0.4,2.8l-10.1,25.7c-2,5-1.8,10.4,0.4,15.2c2.2,4.8,6.3,8.4,11.4,10.1
			l26.2,8.8c1.8,0.6,2.4,1.3,2.4,1.4c0,0.2-0.3,1-1.7,2.2l-20.9,18.1c-4.1,3.5-6.4,8.3-6.7,13.6
			C304.2,222.3,306.1,227.3,309.8,231.2z"/>
		<path class="st0" d="M162.6,248.8c-0.6,0-1.1,0.2-1.5,0.6c-0.4,0.4-0.6,0.9-0.6,1.5v15.3c0,0.6,0.2,1.1,0.6,1.5
			c0.4,0.4,0.9,0.6,1.5,0.6h64c0.6,0,1.1-0.2,1.5-0.6c0.4-0.4,0.6-0.9,0.6-1.5v-15.3c0-0.6-0.2-1.1-0.6-1.5
			c-0.4-0.4-0.9-0.6-1.5-0.6h-18.1v-94.4c0-0.6-0.2-1.1-0.6-1.5c-0.4-0.4-0.9-0.6-1.5-0.6h-20.1c-0.4,0-0.8,0.1-1.2,0.4l-27.4,19
			c-0.7,0.5-1,1.3-0.9,2.2l4,18.2c0.2,0.7,0.7,1.3,1.3,1.5c0.7,0.2,1.4,0.1,2-0.3l16.7-13.2v68.8H162.6z"/>
	</g>
</g>
</svg>
