<?xml version="1.0" encoding="utf-8"?>
<!-- Generator: Adobe Illustrator 25.4.1, SVG Export Plug-In . SVG Version: 6.00 Build 0)  -->
<svg version="1.1" id="Layer_1" xmlns="http://www.w3.org/2000/svg" xmlns:xlink="http://www.w3.org/1999/xlink" x="0px" y="0px"
	 viewBox="0 0 4459.3 4060.9" style="enable-background:new 0 0 4459.3 4060.9;" xml:space="preserve">
<style type="text/css">
	.st0{fill:#FFFFFF;}
	.st1{fill-rule:evenodd;clip-rule:evenodd;fill:url(#SVGID_1_);}
	.st2{fill-rule:evenodd;clip-rule:evenodd;fill:url(#SVGID_00000042698890304767251390000000339283521298598295_);}
	.st3{fill-rule:evenodd;clip-rule:evenodd;fill:url(#SVGID_00000075136299839785792180000000109129396437924030_);}
	.st4{fill:#00A9FF;}
	.st5{fill:#2CFDFF;}
	.st6{fill:url(#SVGID_00000096020780635903510770000016085999786699052470_);}
	.st7{fill:url(#SVGID_00000096766858704478281250000003806165275256318850_);}
	.st8{fill:url(#SVGID_00000101076175185488414440000012647083632793230766_);}
	.st9{fill:url(#SVGID_00000052087289621199165550000002921647611017842330_);}
	.st10{fill-rule:evenodd;clip-rule:evenodd;fill:url(#SVGID_00000118355330488906161340000000851726084449804700_);}
	.st11{fill:#CFFFFF;}
	.st12{fill:#B0F4F6;}
</style>
<g>
	<g>
		<polygon class="st0" points="2135.3,4060.9 2230.4,3767.8 2108.2,3736.5 1974.3,3649.1 1953.4,3464.4 2128.9,3362.4 2108.2,3250 
			2176.5,3200.2 2194.2,3129.9 2224.9,2902.8 2235.3,2894.1 2224.9,3034.7 2176.5,3220.6 2145,3249.1 2163,3386.7 2135.3,3415.4 
			2108.2,3435.6 2062.8,3684.2 2100.7,3710 2176.5,3736.5 2293.8,3704.4 2334.8,3738.7 2208.6,3910.4 2176.5,4037.1 2174.2,4060.8 
					"/>
		<polygon class="st0" points="2170.3,1148.7 2165.7,1114 2250.6,1038.3 2192,946.8 2122,952.1 2108.2,886.1 2157.6,819.2 
			2299.5,786 2373.5,714.4 2373.5,665.5 2344.9,640.3 2224.6,626.5 2122,507.3 1968.3,247.5 1922,146.8 1952.4,4.4 2168.7,0 
			2046.8,48.6 1983.3,162.5 2046.8,339.4 2139.5,515.7 2229.5,598.3 2322.8,574.2 2434.2,574.2 2520.5,657.1 2406.8,753.7 
			2298.9,835.6 2193.6,835.6 2158,860.9 2158,901.3 2221.2,952.1 2299.5,1026.7 2325.4,1088.7 2340.1,1196.9 2222,1114 		"/>
		<polygon class="st0" points="2221.2,1088.7 2046.8,1206.8 1816.4,1375.8 1736.4,1395.6 1589.3,1481.6 1527.1,1521.4 1479.8,1595 
			1445.7,1650.6 1470.4,1736.3 1493.9,1764.8 1474.1,2107.7 1432.2,2441.7 1491.9,2507.5 1551.2,2530 1721.6,2655.6 1818.5,2664.9 
			2147.8,2885 2224.6,2929.1 2392.9,2795.6 2514.3,2695.4 2605.4,2628.7 2743.5,2555.2 2779.3,2480.6 2786.1,2405.2 2834.3,2313.9 
			2937,2077.6 3042.2,1799.3 3079.1,1699.7 2891.4,1513 2591.9,1347.2 2504.4,1296.1 2393.8,1231.5 2307.8,1122.2 		"/>
		<g>
			<g>
				
					<radialGradient id="SVGID_1_" cx="466.5023" cy="2905.2666" r="619.9316" gradientTransform="matrix(0.5912 -0.7329 0.6369 0.6803 -238.7287 597.0225)" gradientUnits="userSpaceOnUse">
					<stop  offset="0" style="stop-color:#413482"/>
					<stop  offset="1" style="stop-color:#2C163C"/>
				</radialGradient>
				<polygon class="st1" points="2224.9,2902.8 1474.1,2428.6 1541.4,1570.9 2432.7,2175.5 				"/>
				
					<radialGradient id="SVGID_00000106852431210688547860000001342933592186989184_" cx="1225.6884" cy="2846.6252" r="618.0713" gradientTransform="matrix(0.5912 -0.7329 0.6369 0.6803 -238.7287 597.0225)" gradientUnits="userSpaceOnUse">
					<stop  offset="0" style="stop-color:#6B43CD"/>
					<stop  offset="1" style="stop-color:#4838D1"/>
				</radialGradient>
				
					<polygon style="fill-rule:evenodd;clip-rule:evenodd;fill:url(#SVGID_00000106852431210688547860000001342933592186989184_);" points="
					1541.4,1570.9 2222,1114 3056.4,1699.7 2432.7,2175.5 				"/>
				
					<radialGradient id="SVGID_00000125594762264663825300000011699799225851108243_" cx="3310.9443" cy="1536.1088" r="545.1812" gradientTransform="matrix(0.8338 0.2817 -0.2448 0.9595 250.856 -107.0864)" gradientUnits="userSpaceOnUse">
					<stop  offset="0" style="stop-color:#231460"/>
					<stop  offset="1" style="stop-color:#1F012E"/>
				</radialGradient>
				
					<polygon style="fill-rule:evenodd;clip-rule:evenodd;fill:url(#SVGID_00000125594762264663825300000011699799225851108243_);" points="
					3056.4,1699.7 2736.1,2520.7 2224.9,2902.8 2404.2,2156.1 				"/>
			</g>
			<g>
				<polygon class="st4" points="2233.2,1761.4 1775.3,1447.6 1791.4,1436.8 2248.8,1750.6 				"/>
				<polygon class="st4" points="2073.5,1532 1909.5,1419.1 1950.7,1391.3 2114.3,1504.3 				"/>
				<polygon class="st4" points="2379.6,1290.4 2331.9,1322.7 2246.7,1380.5 2139.8,1306 2084.6,1267.5 2218.6,1177.5 				"/>
				<polygon class="st4" points="2061,1776.6 2012.9,1809.6 1974.5,1836 1920.4,1799.4 1864.9,1761.6 1951.9,1702.2 				"/>
				<polygon class="st4" points="2799.9,1765.8 2752.8,1798.8 2715.1,1825.2 2662.1,1788.6 2607.7,1750.7 2693.1,1691.4 				"/>
				<polygon class="st4" points="2537.7,1851.8 2373.8,1738.9 2413.9,1711.2 2577.5,1824.1 				"/>
				<polygon class="st4" points="2458.7,2015.5 2293.3,1902.6 2333.2,1874.9 2498.2,1987.8 				"/>
				<polygon class="st4" points="2627.2,1913.4 2576.8,1878.7 2616.5,1851 2666.8,1885.7 				"/>
				<polygon class="st4" points="2358.3,1784.3 2307.8,1749.6 2348,1721.9 2398.4,1756.6 				"/>
				<polygon class="st4" points="2240.8,1865.5 2190,1830.8 2230.2,1803.1 2280.9,1837.8 				"/>
			</g>
			<g>
				<polygon class="st5" points="2331.9,1322.7 2246.7,1380.5 2139.8,1306 2225.7,1248.2 				"/>
				<polygon class="st5" points="2012.9,1809.6 1974.5,1836 1920.4,1799.4 1959.1,1772.9 				"/>
				<polygon class="st5" points="2752.8,1798.8 2715.1,1825.2 2662.1,1788.6 2700.1,1762.2 				"/>
			</g>
			<g>
				<polygon class="st4" points="1800.8,2555.2 2184.7,2798.4 2179.5,2819.8 1797.6,2578.5 				"/>
				<polygon class="st4" points="2057.3,2431.1 2203.3,2526.5 2190.5,2582 2046.3,2488.4 				"/>
				<polygon class="st4" points="2280.9,2304.9 2255.8,2411.6 2242.5,2467.9 2238.6,2484.8 2102.1,2395 2090.8,2387.6 
					2127.3,2202.1 2160.6,2224.5 				"/>
				<polygon class="st4" points="1660.3,2350.7 1654.7,2405.2 1646.7,2483.3 1556.1,2426 1567.2,2291.1 1608.9,2317.9 				"/>
				<polygon class="st4" points="1841,2322.7 1832.7,2382.5 1708.1,2302 1689.4,2289.8 1689.8,2285.9 1696,2228.3 				"/>
				<polygon class="st4" points="1594.4,1865.1 1747.4,1967.4 1740.6,2028.8 1589.3,1928.2 				"/>
				<polygon class="st4" points="1564,2109.1 1608.9,2138.4 1603.4,2201.2 1559,2172.4 				"/>
				<polygon class="st4" points="1796.6,2001.8 1843.7,2033.2 1835.7,2093.5 1789.2,2062.6 				"/>
			</g>
			<g>
				<polygon class="st5" points="2280.9,2304.9 2255.8,2411.6 2138.9,2334.8 2160.6,2224.5 				"/>
				<polygon class="st5" points="1608.9,2317.9 1660.3,2350.7 1654.7,2405.2 1604.4,2373.4 				"/>
			</g>
			<g>
				<g>
					<polygon class="st4" points="2776.1,1950.4 2426.9,2194.7 2432.7,2172.4 2783.9,1927.4 					"/>
					<polygon class="st4" points="2528.2,2283 2510.5,2341.3 2392.9,2426.5 2405.6,2380.1 2408.5,2368.9 2484.4,2314.5 					"/>
					<polygon class="st4" points="2394.5,2613.4 2350.9,2740.7 2283,2793.3 2299.7,2741.4 2323.7,2667.1 2347.1,2649.4 					"/>
					<polygon class="st4" points="2575,2339.9 2533.7,2466.2 2460.9,2520.7 2476.2,2471.2 2499.5,2395.4 2529.4,2373.5 					"/>
					<polygon class="st4" points="3001.2,1775.4 2951.3,1904.1 2872.8,1960 2891.4,1909.8 2920.1,1832.1 2952.9,1809.2 					"/>
					<polygon class="st4" points="2828.2,2044.7 2806,2104.6 2689.7,2188.7 2706.9,2139 2710.2,2129.6 2780.1,2079.4 					"/>
					<polygon class="st4" points="2820.7,2243.2 2796.3,2303.9 2689.5,2384.6 2709.6,2331.4 2712,2324.7 2769.3,2281.7 					"/>
					<polygon class="st4" points="2677.2,2349.6 2674.2,2358 2655.4,2409.4 2622.1,2434.5 2643.6,2374.8 2663,2360.3 					"/>
				</g>
				<g>
					<polygon class="st5" points="2484.4,2314.5 2481.1,2325.2 2405.6,2380.1 2408.5,2368.9 					"/>
					<polygon class="st5" points="2347.1,2649.4 2321,2725 2299.7,2741.4 2323.7,2667.1 					"/>
					<polygon class="st5" points="2529.4,2373.5 2504.1,2450.3 2476.2,2471.2 2499.5,2395.4 					"/>
					<polygon class="st5" points="2952.9,1809.2 2922.2,1887.9 2891.4,1909.8 2920.1,1832.1 					"/>
					<polygon class="st5" points="2780.1,2079.4 2776.7,2088.5 2706.9,2139 2710.2,2129.6 					"/>
					<polygon class="st5" points="2663,2360.3 2677.2,2349.6 2674.2,2358 2659.8,2368.9 					"/>
					<polygon class="st5" points="2769.3,2281.7 2766.7,2288.1 2709.6,2331.4 2712,2324.7 					"/>
				</g>
			</g>
			
				<radialGradient id="SVGID_00000022559605541358075900000011036563057371720347_" cx="2709.5896" cy="1796.5306" r="203.8318" gradientUnits="userSpaceOnUse">
				<stop  offset="0" style="stop-color:#0031FF"/>
				<stop  offset="0.2775" style="stop-color:#0021AA"/>
				<stop  offset="0.5376" style="stop-color:#001361"/>
				<stop  offset="0.7517" style="stop-color:#00092D"/>
				<stop  offset="0.9119" style="stop-color:#00020C"/>
				<stop  offset="1" style="stop-color:#000000"/>
			</radialGradient>
			<circle style="fill:url(#SVGID_00000022559605541358075900000011036563057371720347_);" cx="2709.6" cy="1796.5" r="203.8"/>
			
				<radialGradient id="SVGID_00000165924316200019514980000013895272157840489628_" cx="2189.9653" cy="2326.1362" r="203.832" gradientUnits="userSpaceOnUse">
				<stop  offset="0" style="stop-color:#0031FF"/>
				<stop  offset="0.2775" style="stop-color:#0021AA"/>
				<stop  offset="0.5376" style="stop-color:#001361"/>
				<stop  offset="0.7517" style="stop-color:#00092D"/>
				<stop  offset="0.9119" style="stop-color:#00020C"/>
				<stop  offset="1" style="stop-color:#000000"/>
			</radialGradient>
			<circle style="fill:url(#SVGID_00000165924316200019514980000013895272157840489628_);" cx="2190" cy="2326.1" r="203.8"/>
			
				<radialGradient id="SVGID_00000170961906490842543620000011651118792543266451_" cx="1962.9631" cy="1803.1106" r="156.2686" gradientUnits="userSpaceOnUse">
				<stop  offset="0" style="stop-color:#0031FF"/>
				<stop  offset="0.2775" style="stop-color:#0021AA"/>
				<stop  offset="0.5376" style="stop-color:#001361"/>
				<stop  offset="0.7517" style="stop-color:#00092D"/>
				<stop  offset="0.9119" style="stop-color:#00020C"/>
				<stop  offset="1" style="stop-color:#000000"/>
			</radialGradient>
			<circle style="fill:url(#SVGID_00000170961906490842543620000011651118792543266451_);" cx="1963" cy="1803.1" r="156.3"/>
			
				<radialGradient id="SVGID_00000162329241656959163270000002882476097756161421_" cx="2507.6458" cy="2434.5122" r="156.2682" gradientUnits="userSpaceOnUse">
				<stop  offset="0" style="stop-color:#0031FF"/>
				<stop  offset="0.2775" style="stop-color:#0021AA"/>
				<stop  offset="0.5376" style="stop-color:#001361"/>
				<stop  offset="0.7517" style="stop-color:#00092D"/>
				<stop  offset="0.9119" style="stop-color:#00020C"/>
				<stop  offset="1" style="stop-color:#000000"/>
			</radialGradient>
			<circle style="fill:url(#SVGID_00000162329241656959163270000002882476097756161421_);" cx="2507.6" cy="2434.5" r="156.3"/>
			
				<radialGradient id="SVGID_00000158719192151929322090000011025183145778854073_" cx="2265.2451" cy="2008.4135" r="844.3876" gradientUnits="userSpaceOnUse">
				<stop  offset="0.2505" style="stop-color:#000000"/>
				<stop  offset="0.5077" style="stop-color:#000102"/>
				<stop  offset="0.6102" style="stop-color:#010409"/>
				<stop  offset="0.6853" style="stop-color:#020915"/>
				<stop  offset="0.7469" style="stop-color:#041027"/>
				<stop  offset="0.8002" style="stop-color:#061A3D"/>
				<stop  offset="0.8478" style="stop-color:#092559"/>
				<stop  offset="0.8912" style="stop-color:#0C337A"/>
				<stop  offset="0.9314" style="stop-color:#1043A1"/>
				<stop  offset="0.9673" style="stop-color:#1455CC"/>
				<stop  offset="1" style="stop-color:#1968F9"/>
			</radialGradient>
			
				<polygon style="fill-rule:evenodd;clip-rule:evenodd;fill:url(#SVGID_00000158719192151929322090000011025183145778854073_);" points="
				2222,1114 1541.4,1570.9 1474.1,2428.6 2224.9,2902.8 2736.1,2520.7 3056.4,1699.7 			"/>
		</g>
		<polygon class="st0" points="2108.2,3250 2078.4,3174.7 1978.4,3145.7 1922,3021.8 1786.4,2922.5 1860,2792.9 1843.7,2719.7 
			1686.8,2563 1729.3,2589.8 1747.9,2613.4 1818.5,2682 1850,2701.8 1873.4,2787.3 1865.8,2825.1 1897.5,2825.1 1928.1,2779.8 
			1953.4,2731.3 1978.4,2747.2 1953.4,2748.5 1928.1,2793.3 1890,2842.8 1841.6,2846.2 1815.5,2885.8 1815.5,2916 1860,2941.3 
			1939.9,2959.9 1983.3,3066.4 1991.1,3117.2 1991.1,3134.7 2032.6,3145.7 2078.4,3147.2 2136.9,3149.2 2147.8,3221.2 		"/>
		<polygon class="st11" points="2224.9,3034.7 2334.8,2902.8 2375.2,2869.8 2454.4,2802 2495.9,2700.2 2460.5,2726.7 2454.4,2770.1 
			2414.5,2819.8 2338.8,2879.9 2263.9,2966.3 2224.9,2975.3 		"/>
		<polygon class="st0" points="2248.5,976 2522.4,1208.3 2670.4,1296.1 2767.9,1497.2 2689.7,1436.8 2672.7,1338.5 2657,1303.7 
			2591.9,1271.5 2471.8,1177.5 2379.6,1101.4 2319.9,1075.6 2271.9,1026.7 		"/>
		<g>
			<path class="st0" d="M2190.5,2917.6l-179.8-80.6l-59.4-85.4l-109.5-28.9l-68-43.9l-110.8-32.5l-0.6-0.6L1560,2540.6l-46.7-30.9
				l-41.3-12.2l-71.3-54.1l0.3-129.9l69.5-158.7l-21.6-116l0.1-0.5l21.7-213.3l-7.8-102.6l7.9-160.3l99.7-110.8l216.5-107l98.3-23.2
				l56.2-71.7l89.1-138.3l205.8-39.3l35.4,27.1l35.9,33.2l238.9,205.7l241.3,143.2l178.5,79.4l129,59.3l54.6,116.5l-34.1,27.9
				l-20.3,11.3l-75,197l-56.2,106.8l-151.7,283.3l-9.1,109l-14.1,85.7l-1.2,0.8l-164.2,115.7l-248.2,147.9l-129.6,51.3
				L2190.5,2917.6z M2015.2,2831.6l174.3,78.2l53.5-42.8l129.6-51.3l247.5-147.6l162.9-114.8l13.6-82.6l9.6-110.7l152.1-283.9
				l56-106.4l75.8-198.9l21.9-12.1l29.6-24.3l-51.3-109.5l-126.7-58.3l-178.8-79.6l-242.1-143.7l-239.4-206.1l-35.8-33.1l-32.7-25
				l-200,38.2l-87.7,136.1l-57.8,73.8l-99.9,23.5L1574,1456.9l-96.7,107.8l-7.7,157.5l7.8,102.8l-21.7,213.5l21.8,117.1l-70.1,159.9
				V2440l68.1,51.7l41,12l47.7,31.7l102.4,104.7l110.5,32.6l68,43.9l110.4,29l0.7,1L2015.2,2831.6z"/>
		</g>
	</g>
	<path class="st12" d="M3572.2,1779.4c4.6,0,8.4,3.7,8.4,8.4c0,4.6-3.7,8.4-8.4,8.4s-8.4-3.7-8.4-8.4
		C3563.8,1783.2,3567.6,1779.4,3572.2,1779.4z"/>
	<circle class="st12" cx="3656.8" cy="3840.9" r="8.4"/>
	<path class="st12" d="M3262.2,1443.7c4.6,0,8.4,3.7,8.4,8.4c0,4.6-3.7,8.4-8.4,8.4c-4.6,0-8.4-3.7-8.4-8.4
		C3253.8,1447.4,3257.5,1443.7,3262.2,1443.7z"/>
	<circle class="st12" cx="2848.1" cy="671.8" r="8.4"/>
	<path class="st12" d="M2945.7,990.8c1.2,0,2.2,1,2.2,2.2c0,1.2-1,2.2-2.2,2.2s-2.2-1-2.2-2.2
		C2943.5,991.8,2944.5,990.8,2945.7,990.8z"/>
	<path class="st12" d="M3548.7,1700.2c1.2,0,2.2,1,2.2,2.2c0,1.2-1,2.2-2.2,2.2s-2.2-1-2.2-2.2
		C3546.5,1701.2,3547.4,1700.2,3548.7,1700.2z"/>
	<circle class="st12" cx="2745.1" cy="937.2" r="2.2"/>
	<path class="st12" d="M3752.9,1696.6c1.2,0,2.2,1,2.2,2.2c0,1.2-1,2.2-2.2,2.2c-1.2,0-2.2-1-2.2-2.2
		C3750.7,1697.6,3751.6,1696.6,3752.9,1696.6z"/>
	<path class="st12" d="M3644.6,1979.4c1.2,0,2.2,1,2.2,2.2c0,1.2-1,2.2-2.2,2.2c-1.2,0-2.2-1-2.2-2.2
		C3642.4,1980.4,3643.4,1979.4,3644.6,1979.4z"/>
	<path class="st12" d="M3975.1,1220.4c1.2,0,2.2,1,2.2,2.2c0,1.2-1,2.2-2.2,2.2c-1.2,0-2.2-1-2.2-2.2
		C3972.9,1221.4,3973.9,1220.4,3975.1,1220.4z"/>
	<circle class="st12" cx="3944.6" cy="1384.9" r="2.2"/>
	<path class="st12" d="M3790.6,1578.2c2.4,0,4.4,2,4.4,4.4c0,2.4-2,4.4-4.4,4.4c-2.4,0-4.4-2-4.4-4.4
		C3786.2,1580.2,3788.2,1578.2,3790.6,1578.2z"/>
	<path class="st12" d="M3967.4,1773.3c2.4,0,4.4,2,4.4,4.4c0,2.4-1.9,4.4-4.4,4.4c-2.4,0-4.4-2-4.4-4.4
		C3963.1,1775.2,3965,1773.3,3967.4,1773.3z"/>
	<path class="st12" d="M3158.5,1062.9c2.4,0,4.4,2,4.4,4.4c0,2.4-2,4.4-4.4,4.4c-2.4,0-4.4-2-4.4-4.4
		C3154.1,1064.8,3156.1,1062.9,3158.5,1062.9z"/>
	<path class="st12" d="M3350.1,1420.7c2.4,0,4.4,2,4.4,4.4c0,2.4-2,4.4-4.4,4.4s-4.4-1.9-4.4-4.4
		C3345.7,1422.6,3347.6,1420.7,3350.1,1420.7z"/>
	<path class="st12" d="M3123.9,718.6c2.4,0,4.4,2,4.4,4.4c0,2.4-1.9,4.4-4.4,4.4c-2.4,0-4.4-2-4.4-4.4
		C3119.5,720.5,3121.4,718.6,3123.9,718.6z"/>
	<circle class="st12" cx="576.3" cy="2349.6" r="9.5"/>
	<circle class="st12" cx="2447.5" cy="2996.1" r="9.5"/>
	<path class="st12" d="M1059.6,1884.4c-5.3,0-9.5-4.3-9.5-9.5c0-5.3,4.3-9.5,9.5-9.5s9.5,4.3,9.5,9.5
		C1069.2,1880.1,1064.9,1884.4,1059.6,1884.4z"/>
	<circle class="st12" cx="973.1" cy="482.3" r="9.5"/>
	<path class="st12" d="M1422,3208.7c-5.3,0-9.5-4.3-9.5-9.5c0-5.3,4.3-9.5,9.5-9.5c5.3,0,9.5,4.3,9.5,9.5
		C1431.5,3204.5,1427.3,3208.7,1422,3208.7z"/>
	<circle class="st12" cx="3143.9" cy="2618.8" r="9.5"/>
	<path class="st12" d="M1096.2,2917c-1.4,0-2.5-1.1-2.5-2.5c0-1.4,1.1-2.5,2.5-2.5c1.4,0,2.5,1.1,2.5,2.5
		C1098.7,2915.9,1097.5,2917,1096.2,2917z"/>
	<circle class="st12" cx="1247" cy="3453.1" r="2.5"/>
	<path class="st12" d="M863.9,2921.1c-1.4,0-2.5-1.1-2.5-2.5s1.1-2.5,2.5-2.5c1.4,0,2.5,1.1,2.5,2.5S865.3,2921.1,863.9,2921.1z"/>
	<path class="st12" d="M987,2599.5c-1.4,0-2.5-1.1-2.5-2.5c0-1.4,1.1-2.5,2.5-2.5c1.4,0,2.5,1.1,2.5,2.5
		C989.5,2598.3,988.4,2599.5,987,2599.5z"/>
	<path class="st12" d="M611.1,3462.7c-1.4,0-2.5-1.1-2.5-2.5c0-1.4,1.1-2.5,2.5-2.5s2.5,1.1,2.5,2.5
		C613.6,3461.5,612.5,3462.7,611.1,3462.7z"/>
	<path class="st12" d="M821,3055.7c-2.7,0-5-2.2-5-5c0-2.7,2.2-5,5-5c2.7,0,5,2.2,5,5C826,3053.5,823.8,3055.7,821,3055.7z"/>
	<path class="st12" d="M619.9,2833.9c-2.7,0-5-2.2-5-5c0-2.7,2.2-5,5-5c2.7,0,5,2.2,5,5C624.8,2831.7,622.6,2833.9,619.9,2833.9z"/>
	<path class="st12" d="M1322,3234.9c-2.7,0-5-2.2-5-5c0-2.7,2.2-5,5-5c2.7,0,5,2.2,5,5C1327,3232.7,1324.8,3234.9,1322,3234.9z"/>
	<path class="st12" d="M816.3,3701.8c-2.7,0-5-2.2-5-5c0-2.7,2.2-5,5-5c2.7,0,5,2.2,5,5C821.2,3699.6,819,3701.8,816.3,3701.8z"/>
</g>
</svg>
