<?xml version="1.0" encoding="utf-8"?>
<!-- Generator: Adobe Illustrator 25.4.1, SVG Export Plug-In . SVG Version: 6.00 Build 0)  -->
<svg version="1.1" id="Layer_1" xmlns="http://www.w3.org/2000/svg" xmlns:xlink="http://www.w3.org/1999/xlink" x="0px" y="0px"
	 viewBox="0 0 4459.3 4060.9" style="enable-background:new 0 0 4459.3 4060.9;" xml:space="preserve">
<style type="text/css">
	.st0{display:none;fill:#1B1725;}
	.st1{fill:#FFFFFF;}
	.st2{fill-rule:evenodd;clip-rule:evenodd;fill:url(#SVGID_1_);}
	.st3{fill-rule:evenodd;clip-rule:evenodd;fill:url(#SVGID_00000013880365585689857930000007258187149790797224_);}
	.st4{fill-rule:evenodd;clip-rule:evenodd;fill:url(#SVGID_00000095321566588943265720000017055737069618847407_);}
	.st5{fill:#00A9FF;}
	.st6{fill:#2CFDFF;}
	.st7{fill:#CFFFFF;}
	.st8{fill:#B0F4F6;}
</style>
<g>
	<g id="Layer_1_00000052106087830008844080000014422026631205445282_">
		<rect class="st0" width="4459.3" height="4060.9">
                <animate id="hg0" begin="0;hg0.end" dur="8s"
                attributeName="visibility" from="hide" to="hide"/>
		</rect>
		
		<polygon class="st1" points="2123,4023.7 2216.9,3734.4 2096.2,3703.5 1964.1,3617.3 1943.5,3434.9 2116.7,3334.3 2096.2,3223.3 
			2163.7,3174.1 2181.1,3104.7 2211.5,2880.6 2221.7,2872 2211.5,3010.7 2163.7,3194.2 2132.6,3222.4 2150.4,3358.3 2123,3386.5 
			2096.2,3406.5 2051.5,3651.9 2088.9,3677.4 2163.6,3703.5 2279.4,3671.9 2319.9,3705.7 2195.3,3875.2 2163.7,4000.3 
			2161.4,4023.7 		"/>
		<polygon class="st1" points="2157.5,1149 2153.1,1114.8 2236.8,1040.1 2179,949.7 2109.9,955 2096.2,889.9 2145,823.8 2285.1,791 
			2358.1,720.3 2358.1,672.1 2329.9,647.2 2211.2,633.6 2109.9,515.9 1958.2,259.5 1912.4,160 1942.5,19.5 2155.9,15.1 2035.6,63.1 
			1973,175.5 2035.6,350.1 2127.2,524.2 2216,605.7 2308.1,581.9 2418.1,581.9 2503.3,663.8 2391,759.1 2284.5,840 2180.6,840 
			2145.4,864.9 2145.4,904.8 2207.8,955 2285.1,1028.6 2310.6,1089.8 2325.1,1196.6 2208.6,1114.8 		"/>
		<polygon class="st1" points="2207.8,1089.8 2035.6,1206.4 1808.3,1373.2 1729.3,1392.7 1584,1477.7 1522.6,1516.9 1475.9,1589.6 
			1442.2,1644.5 1466.6,1729 1489.9,1757.2 1470.3,2095.7 1429,2425.4 1487.9,2490.3 1546.4,2512.5 1714.6,2636.5 1810.3,2645.8 
			2135.3,2863 2211.2,2906.5 2377.2,2774.8 2497.1,2675.8 2587.1,2610 2723.4,2537.4 2758.7,2463.8 2765.4,2389.3 2813,2299.2 
			2914.4,2066 3018.2,1791.2 3054.6,1692.9 2869.4,1508.7 2573.8,1344.9 2487.3,1294.6 2378.2,1230.8 2293.3,1122.9 		"/>
		
			<radialGradient id="SVGID_1_" cx="2043.5557" cy="2174.0615" r="611.9515" gradientTransform="matrix(0.59 -0.73 -0.64 -0.68 2072.3621 5188.6079)" gradientUnits="userSpaceOnUse">
			<stop  offset="0" style="stop-color:#413482"/>
			<stop  offset="1" style="stop-color:#2C163C"/>
		</radialGradient>
		<polygon class="st2" points="2211.5,2880.6 1470.3,2412.5 1536.7,1565.8 2416.6,2162.6 		"/>
		
			<radialGradient id="SVGID_00000064323678851702309040000004725486982362177664_" cx="2792.9749" cy="2231.947" r="610.1155" gradientTransform="matrix(0.59 -0.73 -0.64 -0.68 2072.3621 5188.6079)" gradientUnits="userSpaceOnUse">
			<stop  offset="0" style="stop-color:#6B43CD"/>
			<stop  offset="1" style="stop-color:#4838D1"/>
		</radialGradient>
		
			<polygon style="fill-rule:evenodd;clip-rule:evenodd;fill:url(#SVGID_00000064323678851702309040000004725486982362177664_);" points="
			1536.7,1565.8 2208.6,1114.8 3032.3,1692.9 2416.6,2162.6 		"/>
		
			<radialGradient id="SVGID_00000001623368267337436280000000987201559963142032_" cx="2639.915" cy="1884.2909" r="538.1636" gradientTransform="matrix(0.83 0.28 0.24 -0.96 -31.7544 3349.968)" gradientUnits="userSpaceOnUse">
			<stop  offset="0" style="stop-color:#231460"/>
			<stop  offset="1" style="stop-color:#1F012E"/>
		</radialGradient>
		
			<polygon style="fill-rule:evenodd;clip-rule:evenodd;fill:url(#SVGID_00000001623368267337436280000000987201559963142032_);" points="
			3032.3,1692.9 2716,2503.4 2211.5,2880.6 2388.4,2143.5 		"/>
		<polygon class="st5" points="2219.6,1753.8 1767.6,1444.1 1783.5,1433.4 2235.1,1743.2 		"/>
		<polygon class="st5" points="2062,1527.4 1900.1,1415.9 1940.8,1388.6 2102.2,1500 		"/>
		<polygon class="st5" points="2364.2,1288.9 2317.1,1320.8 2232.9,1377.9 2127.5,1304.3 2073,1266.3 2205.3,1177.5 		"/>
		<polygon class="st5" points="2049.7,1768.8 2002.2,1801.4 1964.3,1827.5 1910.9,1791.3 1856.1,1754.1 1942,1695.4 		"/>
		<polygon class="st5" points="2779.1,1758.2 2732.5,1790.8 2695.3,1816.8 2643,1780.7 2589.3,1743.3 2673.6,1684.8 		"/>
		<polygon class="st5" points="2520.3,1843.1 2358.4,1731.6 2398,1704.3 2559.5,1815.7 		"/>
		<polygon class="st5" points="2442.2,2004.6 2278.9,1893.2 2318.4,1865.9 2481.3,1977.3 		"/>
		<polygon class="st5" points="2608.6,1903.9 2558.8,1869.6 2598,1842.3 2647.7,1876.6 		"/>
		<polygon class="st5" points="2343.1,1776.5 2293.3,1742.2 2332.9,1714.9 2382.7,1749.2 		"/>
		<polygon class="st5" points="2227.2,1856.6 2177,1822.4 2216.6,1795 2266.7,1829.3 		"/>
		<polygon id="rec1" class="st6 hg" points="2317.1,1320.8 2232.9,1377.9 2127.5,1304.3 2212.2,1247.3">
			<animate id="hg1" attributeName="opacity" values="0;1;0" dur="2s" begin="hg0.begin;hg0.end" repeatCount="indefinite"/>
		</polygon>
		<polygon id="rec2" class="st6 hg" points="2002.2,1801.4 1964.3,1827.5 1910.9,1791.3 1949,1765.3">
			<animate id="hg2" attributeName="opacity" values="0;1;0" dur="2s" begin="hg0.begin+1s;hg0.end+1s" repeatCount="indefinite"/>
		</polygon>
		<polygon id="rec4" class="st6 hg" points="2732.5,1790.8 2695.3,1816.8 2643,1780.7 2680.5,1754.6">
			<animate id="hg3" attributeName="opacity" values="0;1;0" dur="2s" begin="hg0.begin+2s;hg0.end+2s" repeatCount="indefinite"/>
		</polygon>
		<polygon class="st5" points="1792.8,2537.4 2171.7,2777.5 2166.7,2798.6 1789.6,2560.5 		"/>
		<polygon class="st5" points="2046,2415 2190.1,2509.1 2177.5,2563.9 2035.1,2471.5 		"/>
		<polygon class="st5" points="2266.7,2290.4 2242,2395.7 2228.8,2451.3 2225,2467.9 2090.2,2379.3 2079.1,2372 2115.1,2188.9 
			2148,2211 		"/>
		<polygon class="st5" points="1654.1,2335.6 1648.6,2389.3 1640.7,2466.4 1551.3,2409.9 1562.2,2276.7 1603.4,2303.1 		"/>
		<polygon class="st5" points="1832.5,2307.9 1824.3,2367 1701.3,2287.5 1682.8,2275.5 1683.2,2271.6 1689.3,2214.7 		"/>
		<polygon class="st5" points="1589,1856.2 1740.1,1957.2 1733.4,2017.8 1584,1918.5 		"/>
		<polygon class="st5" points="1559.1,2097.1 1603.4,2126 1597.9,2187.9 1554.2,2159.5 		"/>
		<polygon class="st5" points="1788.7,1991.2 1835.1,2022.2 1827.3,2081.7 1781.4,2051.2 		"/>
		<polygon id="rec3" class="st6 hg" points="2266.7,2290.4 2242,2395.7 2126.6,2319.9 2148,2211">
			<animate id="hg4" attributeName="opacity" values="0;1;0" dur="2s" begin="hg0.begin+3s;hg0.end+3s" repeatCount="indefinite"/>
		</polygon>
		<polygon id="rec8" class="st6 hg" points="1603.4,2303.1 1654.1,2335.6 1648.6,2389.3 1598.9,2357.9">
			<animate id="hg5" attributeName="opacity" values="0;1;0" dur="2s" begin="hg0.begin+4s;hg0.end+4s" repeatCount="indefinite"/>
		</polygon>
		<polygon class="st5" points="2755.5,1940.4 2410.9,2181.5 2416.6,2159.5 2763.2,1917.7 		"/>
		<polygon class="st5" points="2510.8,2268.7 2493.4,2326.2 2377.2,2410.4 2389.8,2364.6 2392.7,2353.6 2467.6,2299.8 		"/>
		<polygon class="st5" points="2378.8,2594.9 2335.8,2720.5 2268.8,2772.5 2285.3,2721.3 2309,2647.9 2332,2630.4 		"/>
		<polygon class="st5" points="2557.1,2324.9 2516.3,2449.6 2444.4,2503.4 2459.5,2454.5 2482.5,2379.7 2512,2358 		"/>
		<polygon class="st5" points="2977.7,1767.6 2928.5,1894.7 2851,1949.9 2869.4,1900.3 2897.7,1823.6 2930.1,1801.1 		"/>
		<polygon class="st5" points="2807,2033.5 2785,2092.6 2670.3,2175.7 2687.2,2126.6 2690.5,2117.3 2759.5,2067.7 		"/>
		<polygon class="st5" points="2799.6,2229.4 2775.5,2289.4 2670,2369.1 2689.9,2316.5 2692.3,2309.8 2748.8,2267.4 		"/>
		<polygon class="st5" points="2658,2334.5 2655,2342.8 2636.4,2393.5 2603.6,2418.3 2624.8,2359.3 2643.9,2345 		"/>
		<polygon class="st6" points="2467.6,2299.8 2464.4,2310.4 2389.8,2364.6 2392.7,2353.6 		"/>
		<polygon id="rec6" class="st6 hg" points="2332,2630.4 2306.3,2705 2285.3,2721.3 2309,2647.9">
			 <animate id="hg6" attributeName="opacity" values="0;1;0" dur="4s" begin="hg0.begin+5s;hg0.end+5s" repeatCount="indefinite"/>
		</polygon>
		<polygon class="st6 hg" points="2512,2358 2487.1,2433.9 2459.5,2454.5 2482.5,2379.7 		"/>
		<polygon id="rec7" class="st6 hg" points="2930.1,1801.1 2899.8,1878.7 2869.4,1900.3 2897.7,1823.6 ">
			 <animate id="hg7" attributeName="opacity" values="0;1;0" dur="4s" begin="hg0.begin+6s;hg0.end+6s" repeatCount="indefinite"/>
		</polygon>
		<polygon class="st6" points="2759.5,2067.7 2756.1,2076.7 2687.2,2126.6 2690.5,2117.3 		"/>
		<polygon class="st6" points="2643.9,2345 2658,2334.5 2655,2342.8 2640.8,2353.5 		"/>
		<polygon class="st6" points="2748.8,2267.4 2746.3,2273.8 2689.9,2316.5 2692.3,2309.8 		"/>
		<polygon class="st1" points="2096.2,3223.3 2066.8,3148.9 1968.2,3120.4 1912.4,2998 1778.6,2900 1851.3,2772 1835.1,2699.9 
			1680.3,2545.1 1722.2,2571.6 1740.6,2594.9 1810.3,2662.6 1841.4,2682.1 1864.5,2766.5 1857,2803.9 1888.2,2803.9 1918.5,2759.1 
			1943.5,2711.3 1968.2,2726.9 1943.5,2728.3 1918.5,2772.5 1880.8,2821.4 1833.1,2824.7 1807.3,2863.7 1807.3,2893.6 
			1851.3,2918.6 1930.1,2936.9 1973,3042 1980.7,3092.2 1980.7,3109.4 2021.6,3120.4 2066.8,3121.9 2124.6,3123.7 2135.3,3194.8 		
			"/>
		<polygon class="st7" points="2211.5,3010.7 2319.9,2880.6 2359.8,2848 2438,2781 2479,2680.6 2444,2706.7 2438,2749.6 
			2398.6,2798.6 2323.9,2857.9 2249.9,2943.3 2211.5,2952.1 		"/>
		<polygon class="st1" points="2234.7,978.6 2505.1,1207.9 2651.2,1294.6 2747.5,1493 2670.2,1433.4 2653.5,1336.4 2637.9,1302.1 
			2573.8,1270.3 2455.2,1177.5 2364.2,1102.3 2305.2,1076.8 2257.8,1028.6 		"/>
		<path class="st1" d="M2177.5,2895.1l-177.4-79.6l-58.6-84.4l-108.1-28.5l-67.1-43.3l-109.4-32.1l-0.6-0.6L1555.1,2523l-46.1-30.5
			l-40.7-12l-70.3-53.5l0.3-128.3l68.6-156.6l-21.3-114.5v-0.5l21.4-210.6l-7.7-101.3l7.8-158.2l98.4-109.4l213.7-105.6l97-22.9
			l55.5-70.8l87.9-136.5l203.1-38.8l34.9,26.7l35.4,32.8l235.8,203.1L2767,1477l176.2,78.4l127.3,58.5l53.9,115l-33.6,27.5l-20,11.1
			l-74,194.5l-55.4,105.5l-149.8,279.7l-9,107.6l-14,84.6l-1.1,0.8l-162.1,114.3l-245,146.1l-127.9,50.7L2177.5,2895.1z
			 M2004.4,2810.2l172,77.2l52.9-42.3l127.9-50.6l244.3-145.7l160.8-113.3l13.5-81.6l9.4-109.3l150.1-280.3l55.3-105.1l74.8-196.4
			l21.6-12l29.2-24l-50.7-108.1l-125-57.5l-176.5-78.6l-239-141.9l-236.4-203.4l-35.3-32.7l-32.3-24.7l-197.4,37.7l-86.6,134.4
			l-57.1,72.9l-98.6,23.2l-212.4,105.1l-95.4,106.4l-7.7,155.4l7.7,101.4l-21.4,210.7l21.5,115.6l-69.2,157.9v122.9l67.2,51.1
			l40.5,11.8l47.1,31.3l101,103.4l109.1,32.2l67.1,43.3l109,28.6l0.7,1L2004.4,2810.2z"/>
		<path class="st8" d="M3541.4,1771.6c4.6,0,8.3,3.7,8.3,8.3c0,4.6-3.7,8.3-8.3,8.3c-4.6,0-8.3-3.7-8.3-8.3
			C3533.2,1775.3,3536.9,1771.6,3541.4,1771.6L3541.4,1771.6z"/>
		<circle id="circle2" class="st8 hg" cx="3624.9" cy="3806.6" r="8.3">
		  <animate id="hg1" attributeName="opacity" values="0;1;0" dur="2s" begin="hg0.begin+7s;hg0.end+7s" repeatCount="indefinite"/>
		</circle>
		<path id="circle5" class="st8 hg" d="M3235.4,1440.2c4.6,0,8.3,3.7,8.3,8.3s-3.7,8.3-8.3,8.3c-4.6,0-8.3-3.7-8.3-8.3c0,0,0,0,0,0
			C3227.1,1443.9,3230.8,1440.2,3235.4,1440.2C3235.4,1440.2,3235.4,1440.2,3235.4,1440.2z">
			<animate id="hg2" attributeName="opacity" values="0;1;0" dur="2s" begin="hg0.begin+8s;hg0.end+8s" repeatCount="indefinite"/>
		</path>
		<circle id="circle6" class="st8 hg" cx="2826.6" cy="678.3" r="8.3">
			<animate id="hg1" attributeName="opacity" values="0;1;0" dur="2s" begin="hg0.begin+9s;hg0.end+9s" repeatCount="indefinite"/>
		</circle>
		<path class="st8" d="M2923,993.2c1.2,0,2.2,1,2.2,2.2c0,1.2-1,2.2-2.2,2.2c-1.2,0-2.2-1-2.2-2.2c0,0,0,0,0,0
			C2920.8,994.2,2921.7,993.2,2923,993.2C2922.9,993.2,2923,993.2,2923,993.2z"/>
		<path class="st8" d="M3518.2,1693.5c1.2,0,2.2,1,2.2,2.2c0,1.2-1,2.2-2.2,2.2c-1.2,0-2.2-1-2.2-2.2v0
			C3516,1694.4,3517,1693.5,3518.2,1693.5z"/>
		<circle class="st8 hg" cx="2725" cy="940.3" r="2.2">
			<animate id="hg1" attributeName="opacity" values="0;1;0" dur="2s" begin="hg0.begin+10s;hg0.end+10s" repeatCount="indefinite"/>
		</circle>
		<path class="st8" d="M3719.7,1689.9c1.2,0,2.2,1,2.2,2.2c0,1.2-1,2.2-2.2,2.2c-1.2,0-2.2-1-2.2-2.2c0,0,0,0,0,0
			C3717.6,1690.9,3718.5,1689.9,3719.7,1689.9z"/>
		<path class="st8" d="M3612.9,1969c1.2,0,2.2,1,2.2,2.2c0,1.2-1,2.2-2.2,2.2s-2.2-1-2.2-2.2c0,0,0,0,0,0
			C3610.7,1970,3611.7,1969,3612.9,1969C3612.9,1969,3612.9,1969,3612.9,1969z"/>
		<path class="st8" d="M3939.1,1219.8c1.2,0,2.2,1,2.2,2.2c0,1.2-1,2.2-2.2,2.2c-1.2,0-2.2-1-2.2-2.2v0
			C3937,1220.8,3937.9,1219.8,3939.1,1219.8z"/>
		<circle class="st8 hg" cx="3909" cy="1382.2" r="2.2">
			<animate id="hg1" attributeName="opacity" values="0;1;0" dur="2s" begin="hg0.begin+11s;hg0.end+11s" repeatCount="indefinite"/>
		</circle>
		<path class="st8" d="M3757,1573c2.4,0,4.3,1.9,4.3,4.3s-1.9,4.3-4.3,4.3c-2.4,0-4.3-1.9-4.3-4.3S3754.6,1573,3757,1573L3757,1573z
			"/>
		<path class="st8" d="M3931.6,1765.6c2.4,0,4.3,1.9,4.3,4.3s-1.9,4.3-4.3,4.3c-2.4,0-4.3-1.9-4.3-4.3S3929.2,1765.6,3931.6,1765.6
			L3931.6,1765.6z"/>
		<path class="st8" d="M3133,1064.3c2.4,0,4.3,1.9,4.3,4.3s-1.9,4.3-4.3,4.3c-2.4,0-4.3-1.9-4.3-4.3S3130.6,1064.3,3133,1064.3
			L3133,1064.3z"/>
		<path class="st8" d="M3322.1,1417.5c2.4,0,4.3,1.9,4.3,4.3c0,2.4-1.9,4.3-4.3,4.3c-2.4,0-4.3-1.9-4.3-4.3c0,0,0,0,0,0
			C3317.8,1419.4,3319.7,1417.5,3322.1,1417.5z"/>
		<path class="st8" d="M3098.8,724.4c2.4,0,4.3,1.9,4.3,4.3c0,2.4-1.9,4.3-4.3,4.3s-4.3-1.9-4.3-4.3c0,0,0,0,0,0
			C3094.5,726.4,3096.5,724.5,3098.8,724.4z"/>
		<circle class="st8 hg" cx="584.1" cy="2334.5" r="9.4">
		<animate id="hg1" attributeName="opacity" values="0;1;0" dur="2s" begin="hg0.begin+12s;hg0.end+12s" repeatCount="indefinite"/>
		</circle>
		<circle class="st8 hg" cx="2431.2" cy="2972.7" r="9.4">
			<animate id="hg1" attributeName="opacity" values="0;1;0" dur="2s" begin="hg0.begin+13s;hg0.end+13s" repeatCount="indefinite"/>
		</circle>
		<path id="circle1" class="st8 hg" d="M1061.2,1875.3c-5.2,0-9.4-4.2-9.4-9.4c0-5.2,4.2-9.4,9.4-9.4c5.2,0,9.4,4.2,9.4,9.4
			c0,0,0,0,0,0C1070.6,1871.1,1066.4,1875.3,1061.2,1875.3L1061.2,1875.3z">
			<animate id="hg1" attributeName="opacity" values="0;1;0" dur="2s" begin="hg0.begin+14s;hg0.end+14s" repeatCount="indefinite"/>
		</path>	
		<circle id="cicle4" class="st8 hg" cx="975.8" cy="491.2" r="9.4">
			<animate id="hg1" attributeName="opacity" values="0;1;0" dur="2s" begin="hg0.begin+15s;hg0.end+15s" repeatCount="indefinite"/>
		</circle>
		<path id="circle3" class="st8 hg" d="M1418.9,3182.6c-5.2,0-9.4-4.2-9.4-9.4c0-5.2,4.2-9.4,9.4-9.4c5.2,0,9.4,4.2,9.4,9.4
			c0,0,0,0,0,0C1428.3,3178.3,1424.1,3182.5,1418.9,3182.6C1418.9,3182.6,1418.9,3182.6,1418.9,3182.6z">
			<animate id="hg1" attributeName="opacity" values="0;1;0" dur="2s" begin="hg0.begin+16s;hg0.end+16s" repeatCount="indefinite"/>
		</path>
		<circle id="circle7" class="st8 hg" cx="3118.6" cy="2600.3" r="9.4">
		<animate id="hg1" attributeName="opacity" values="0;1;0" dur="2s" begin="hg0.begin+17s;hg0.end+17s" repeatCount="indefinite"/>
		</circle>
		<path class="st8" d="M1097.2,2894.6c-1.4,0-2.5-1.1-2.5-2.5s1.1-2.5,2.5-2.5c1.4,0,2.5,1.1,2.5,2.5S1098.6,2894.6,1097.2,2894.6z"
			/>
		<circle class="st8 hg" cx="1246.1" cy="3423.8" r="2.5">
		<animate id="hg1" attributeName="opacity" values="0;1;0" dur="2s" begin="hg0.begin+18s;hg0.end+18s" repeatCount="indefinite"/>
		</circle>

		<path class="st8" d="M868,2898.6c-1.4,0-2.5-1.1-2.5-2.5c0-1.4,1.1-2.5,2.5-2.5c1.4,0,2.5,1.1,2.5,2.5
			C870.5,2897.5,869.3,2898.6,868,2898.6z"/>
		<path class="st8" d="M989.5,2581.1c-1.4,0-2.5-1.1-2.5-2.5c0-1.4,1.1-2.5,2.5-2.5s2.5,1.1,2.5,2.5
			C991.9,2580,990.8,2581.1,989.5,2581.1z"/>
		<path class="st8" d="M618.5,3433.2c-1.4,0-2.5-1.1-2.5-2.5s1.1-2.5,2.5-2.5s2.5,1.1,2.5,2.5S619.8,3433.2,618.5,3433.2z"/>
		<path class="st8" d="M825.6,3031.5c-2.7,0-4.9-2.2-4.9-4.9c0-2.7,2.2-4.9,4.9-4.9c2.7,0,4.9,2.2,4.9,4.9
			C830.6,3029.3,828.3,3031.5,825.6,3031.5z"/>
		<path class="st8" d="M627.1,2812.5c-2.7,0-4.9-2.2-4.9-4.9c0-2.7,2.2-4.9,4.9-4.9s4.9,2.2,4.9,4.9
			C632,2810.3,629.8,2812.5,627.1,2812.5z"/>
		<path class="st8" d="M1320.2,3208.4c-2.7,0-4.9-2.2-4.9-4.9c0-2.7,2.2-4.9,4.9-4.9s4.9,2.2,4.9,4.9
			C1325.1,3206.2,1323,3208.4,1320.2,3208.4C1320.2,3208.4,1320.2,3208.4,1320.2,3208.4z"/>
		<path class="st8" d="M820.9,3669.3c-2.7,0-4.9-2.2-4.9-4.9c0-2.7,2.2-4.9,4.9-4.9s4.9,2.2,4.9,4.9
			C825.9,3667.1,823.7,3669.3,820.9,3669.3z"/>
	</g>
</g>
</svg>
