<svg width="77" height="60" viewBox="0 0 77 60" fill="none" xmlns="http://www.w3.org/2000/svg">
<path d="M19.4107 0.115234L19.1421 21.2939L38.4802 40.7193V19.1492L19.4107 0.115234Z" fill="#C0CAE8"/>
<path d="M38.4345 40.9365L19.4107 59.925L19.1421 38.4862L19.126 38.4728L27.667 29.9478L38.2599 40.521L38.1391 40.6417L38.4345 40.9365Z" fill="#838AA2"/>
<path d="M38.3619 19.2701L38.1766 19.4577L27.7125 29.9023L27.6669 29.9479L19.1259 38.473L19.0775 38.5212L0.0725178 19.5516L0 19.4792L0.0671461 19.4122L19.2844 0.228027L19.4079 0.351346L38.3243 19.2325L38.3619 19.2701Z" fill="#2A2F4E"/>
<path d="M19.4106 59.925V59.933L0.0725098 40.6309V40.6282L10.6306 30.0898L0.0725098 19.5514V19.5005L10.6708 30.0496L19.1259 38.4728L19.142 38.4862L19.4106 59.925Z" fill="#CACCD4"/>
<path d="M57.5496 0L57.281 21.1787L76.6191 40.6041V19.034L57.5496 0Z" fill="#C0CAE8"/>
<path d="M76.5734 40.8213L57.5496 59.8097L57.281 38.371L57.2649 38.3576L65.8059 29.8325L76.3988 40.4058L76.278 40.5264L76.5734 40.8213Z" fill="#838AA2"/>
<path d="M76.5008 19.1546L76.3155 19.3423L65.8515 29.7868L65.8058 29.8324L57.2648 38.3575L57.2165 38.4057L38.2114 19.4361L38.1389 19.3637L38.2061 19.2967L57.4233 0.112549L57.5468 0.235868L76.4632 19.1171L76.5008 19.1546Z" fill="#2A2F4E"/>
<path d="M57.5495 59.8097V59.8178L38.2114 40.5157V40.513L48.7695 29.9746L38.2114 19.4362V19.3853L48.8098 29.9344L57.2648 38.3576L57.2809 38.371L57.5495 59.8097Z" fill="#CACCD4"/>
</svg>
