<svg width="245" height="60" viewBox="0 0 245 60" fill="none" xmlns="http://www.w3.org/2000/svg">
<g opacity="0.5">
<path opacity="0.5" d="M19.4107 0.115288L19.1421 21.294L38.4802 40.7194V19.1493L19.4107 0.115288Z" fill="#E7DADC"/>
</g>
<g opacity="0.5">
<path opacity="0.5" d="M38.4345 40.9365L19.4107 59.925L19.1421 38.4862L19.126 38.4728L27.667 29.9477L38.2599 40.521L38.1391 40.6416L38.4345 40.9365Z" fill="#226CE0"/>
</g>
<g opacity="0.58">
<path opacity="0.58" d="M19.142 38.4862L19.4106 59.9249L19.4079 59.9303L19.4025 59.933L19.3354 60L0 40.7006L0.0725178 40.6309V40.6282L10.6709 30.0496L19.2199 21.5165L27.6669 29.9477L19.1259 38.4728L19.142 38.4862Z" fill="#D0BCD5"/>
</g>
<g opacity="0.58">
<path opacity="0.58" d="M38.2669 40.5097L38.144 40.6296L38.4371 40.9286L38.5599 40.8086L38.2669 40.5097Z" fill="#D0BCD5"/>
</g>
<path d="M38.3619 19.2699L38.1766 19.4576L27.7125 29.9021L27.6669 29.9477L19.1259 38.4728L19.0775 38.5211L0.0725178 19.5514L0 19.479L0.0671461 19.412L19.2844 0.227867L19.4079 0.351186L38.3243 19.2324L38.3619 19.2699Z" fill="#E7DADC"/>
<path d="M19.4106 59.9249V59.933L0.0725098 40.6309V40.6282L10.6306 30.0898L0.0725098 19.5514V19.5005L10.6708 30.0496L19.1259 38.4728L19.142 38.4862L19.4106 59.9249Z" fill="#3681F8"/>
<g opacity="0.5">
<path opacity="0.5" d="M57.5496 0L57.281 21.1787L76.6191 40.6041V19.034L57.5496 0Z" fill="#E7DADC"/>
</g>
<g opacity="0.5">
<path opacity="0.5" d="M76.5734 40.8212L57.5496 59.8097L57.281 38.3709L57.2649 38.3575L65.8059 29.8325L76.3988 40.4057L76.278 40.5263L76.5734 40.8212Z" fill="#226CE0"/>
</g>
<g opacity="0.58">
<path opacity="0.58" d="M57.2809 38.3709L57.5495 59.8096L57.5468 59.815L57.5415 59.8177L57.4743 59.8847L38.1389 40.5853L38.2114 40.5156V40.5129L57.3588 21.4012L65.8058 29.8324L57.2648 38.3575L57.2809 38.3709Z" fill="#D0BCD5"/>
</g>
<g opacity="0.58">
<path opacity="0.58" d="M76.4048 40.3955L76.282 40.5154L76.5749 40.8143L76.6978 40.6943L76.4048 40.3955Z" fill="#D0BCD5"/>
</g>
<path d="M76.5008 19.1546L76.3155 19.3423L65.8515 29.7869L65.8058 29.8324L57.2648 38.3575L57.2165 38.4058L38.2114 19.4361L38.1389 19.3637L38.2061 19.2967L57.4233 0.112595L57.5468 0.235914L76.4632 19.1171L76.5008 19.1546Z" fill="#E7DADC"/>
<path d="M57.5495 59.8097V59.8177L38.2114 40.5156V40.5129L48.7695 29.9745L38.2114 19.4361V19.3852L48.8098 29.9343L57.2648 38.3575L57.2809 38.3709L57.5495 59.8097Z" fill="#3681F8"/>
<g clip-path="url(#clip0_5_589)">
<path d="M120.944 44.6226H116.856L108.31 31.8758H111.876C113.314 31.8758 114.503 31.4007 115.444 30.4505C116.385 29.5268 116.856 28.352 116.856 26.9261C116.856 25.4759 116.385 24.2884 115.444 23.3636C114.502 22.4134 113.313 21.9383 111.876 21.9383H105.71V44.6226H101.993V18.3758H111.876C114.501 18.3758 116.619 19.1633 118.232 20.7381C119.791 22.2832 120.57 24.2829 120.571 26.7374C120.571 28.7371 120.014 30.4621 118.9 31.9123C117.786 33.3624 116.262 34.3121 114.33 34.7612L120.944 44.6226Z" fill="#E7DADC"/>
<path d="M166.416 41.4773V44.6706L160.539 44.6275H160.147V42.1891C158.638 44.0652 156.594 45.0033 154.016 45.0033C151.639 45.0033 149.708 44.2026 148.222 42.6013C146.76 41.0264 146.029 39.0145 146.029 36.5656V25.8782H149.744V36.1799C149.744 37.8055 150.215 39.0807 151.157 40.0056C152.074 40.9558 153.338 41.4309 154.947 41.4309C156.557 41.4309 157.82 40.9558 158.736 40.0056C159.678 39.0807 160.148 37.8055 160.147 36.1799V25.8682H163.862V41.4773H166.416Z" fill="#E7DADC"/>
<path d="M172.412 18.3758V28.3498C174.195 26.4494 176.425 25.4997 179.101 25.5008C181.749 25.5008 183.953 26.4256 185.713 28.2753C187.495 30.1514 188.387 32.4762 188.388 35.2495C188.389 38.0229 187.498 40.3477 185.713 42.2238C183.957 44.0746 181.753 45 179.101 45C176.425 45 174.195 44.0498 172.412 42.1494V44.6226H168.696V18.3758H172.412ZM182.964 39.7126C184.103 38.5626 184.673 37.0727 184.673 35.2429C184.673 33.4131 184.103 31.9232 182.964 30.7733C181.823 29.6244 180.347 29.0494 178.535 29.0483C176.723 29.0472 175.247 29.6222 174.106 30.7733C172.966 31.9232 172.396 33.4131 172.397 35.2429C172.398 37.0727 172.968 38.5626 174.106 39.7126C175.245 40.8614 176.721 41.4359 178.535 41.4359C180.349 41.4359 181.825 40.8614 182.964 39.7126Z" fill="#E7DADC"/>
<path d="M196.932 20.9996L193.962 23.9993L190.985 20.9996L193.959 18.0001L196.932 20.9996ZM192.103 25.8749H195.819V44.6226H192.103V25.8749Z" fill="#E7DADC"/>
<path d="M200.649 18.3758H204.365V44.6226H200.649V18.3758ZM216.998 25.8749L209.566 35.2495L216.998 44.6242H212.725L205.295 35.2495L212.725 25.8749H216.998Z" fill="#E7DADC"/>
<path d="M141.571 25.8749V44.6226H137.857V42.1841C136.345 44.0603 134.301 44.9984 131.726 44.9984C129.348 44.9984 127.416 44.1976 125.929 42.5963C124.468 41.0214 123.737 39.0095 123.737 36.5606V25.8733H127.453V36.1799C127.453 37.8055 127.923 39.0807 128.865 40.0056C129.78 40.9558 131.043 41.431 132.652 41.431C134.262 41.431 135.526 40.9558 136.445 40.0056C137.385 39.0807 137.856 37.8055 137.857 36.1799V29.0334H135.379V25.8401L139.118 25.8682L141.571 25.8749Z" fill="#E7DADC"/>
</g>
<defs>
<clipPath id="clip0_5_589">
<rect width="115" height="27" fill="white" transform="translate(102 18)"/>
</clipPath>
</defs>
</svg>
