<?xml version="1.0" encoding="utf-8"?>
<!-- Generator: Adobe Illustrator 25.4.1, SVG Export Plug-In . SVG Version: 6.00 Build 0)  -->
<svg version="1.1" id="Layer_1" xmlns="http://www.w3.org/2000/svg" xmlns:xlink="http://www.w3.org/1999/xlink" x="0px" y="0px"
	 viewBox="0 0 233 179" style="enable-background:new 0 0 233 179;" xml:space="preserve">
<style type="text/css">
	.st0{opacity:0.5;}
	.st1{opacity:0.5;fill:#E7DADC;enable-background:new    ;}
	.st2{opacity:0.5;fill:#226CE0;enable-background:new    ;}
	.st3{opacity:0.58;}
	.st4{opacity:0.58;fill:#D0BCD5;enable-background:new    ;}
	.st5{fill:#FFFAFA;}
	.st6{fill:#3681F8;}
</style>
<g class="st0">
	<path class="st1" d="M57.9,0.3l-0.8,63.2l57.7,58V57.1L57.9,0.3z"/>
</g>
<g class="st0">
	<path class="st2" d="M114.7,122.1l-56.8,56.6l-0.8-64l0,0l25.5-25.4l31.6,31.5l-0.4,0.4L114.7,122.1z"/>
</g>
<g class="st3">
	<path class="st4" d="M57.1,114.8l0.8,64l0,0l0,0l-0.2,0.2L0,121.4l0.2-0.2v0l31.6-31.6l25.5-25.5l25.2,25.2L57.1,114.8L57.1,114.8z
		"/>
</g>
<g class="st3">
	<path class="st4" d="M114.2,120.9l-0.4,0.4l0.9,0.9l0.4-0.4L114.2,120.9z"/>
</g>
<path class="st5" d="M114.5,57.5l-0.6,0.6L82.7,89.2l-0.1,0.1l-25.5,25.4l-0.1,0.1L0.2,58.3L0,58.1l0.2-0.2L57.5,0.7L57.9,1
	l56.4,56.3L114.5,57.5z"/>
<path class="st6" d="M57.9,178.8L57.9,178.8L0.2,121.2v0l31.5-31.4L0.2,58.3v-0.2l31.6,31.5l25.2,25.1l0,0L57.9,178.8z"/>
<g class="st0">
	<path class="st1" d="M171.7,0l-0.8,63.2l57.7,58V56.8L171.7,0z"/>
</g>
<g class="st0">
	<path class="st2" d="M228.5,121.8l-56.8,56.6l-0.8-64l0,0L196.3,89l31.6,31.5l-0.4,0.4L228.5,121.8z"/>
</g>
<g class="st3">
	<path class="st4" d="M170.9,114.5l0.8,64l0,0l0,0l-0.2,0.2l-57.7-57.6l0.2-0.2v0l57.1-57L196.3,89L170.9,114.5L170.9,114.5z"/>
</g>
<g class="st3">
	<path class="st4" d="M228,120.5l-0.4,0.4l0.9,0.9l0.4-0.4L228,120.5z"/>
</g>
<path class="st5" d="M228.3,57.1l-0.6,0.6l-31.2,31.2l-0.1,0.1l-25.5,25.4l-0.1,0.1L114,58l-0.2-0.2l0.2-0.2l57.3-57.2l0.4,0.4
	L228.1,57L228.3,57.1z"/>
<path class="st6" d="M171.7,178.4L171.7,178.4L114,120.9v0l31.5-31.4L114,58v-0.2l31.6,31.5l25.2,25.1l0,0L171.7,178.4z"/>
</svg>
