<svg width="731" height="179" viewBox="0 0 731 179" fill="none" xmlns="http://www.w3.org/2000/svg">
<g opacity="0.5">
<path opacity="0.5" d="M57.9148 0.343964L57.1134 63.527L114.812 121.479V57.1287L57.9148 0.343964Z" fill="#E7DADC"/>
</g>
<g opacity="0.5">
<path opacity="0.5" d="M114.676 122.127L57.915 178.776L57.1137 114.817L57.0656 114.777L82.5491 89.3441L114.155 120.888L113.794 121.248L114.676 122.127Z" fill="#226CE0"/>
</g>
<g opacity="0.58">
<path opacity="0.58" d="M57.1135 114.817L57.9149 178.776L57.9069 178.792L57.8908 178.8L57.6905 179L0 121.423L0.216369 121.215V121.207L31.8384 89.6479L57.3459 64.1907L82.5489 89.344L57.0654 114.777L57.1135 114.817Z" fill="#D0BCD5"/>
</g>
<g opacity="0.58">
<path opacity="0.58" d="M114.176 120.854L113.81 121.212L114.684 122.104L115.05 121.746L114.176 120.854Z" fill="#D0BCD5"/>
</g>
<path d="M114.459 57.4886L113.906 58.0484L82.6852 89.2081L82.5489 89.344L57.0654 114.777L56.9212 114.921L0.216369 58.3284L0 58.1124L0.200342 57.9125L57.5382 0.67981L57.9069 1.04771L114.347 57.3766L114.459 57.4886Z" fill="#FFFAFA"/>
<path d="M57.9148 178.776V178.8L0.216248 121.216V121.208L31.718 89.768L0.216248 58.3284V58.1765L31.8382 89.648L57.0653 114.777L57.1134 114.817L57.9148 178.776Z" fill="#3681F8"/>
<g opacity="0.5">
<path opacity="0.5" d="M171.709 0L170.908 63.1831L228.606 121.136V56.7848L171.709 0Z" fill="#E7DADC"/>
</g>
<g opacity="0.5">
<path opacity="0.5" d="M228.47 121.783L171.709 178.432L170.908 114.473L170.86 114.433L196.343 89.0002L227.949 120.544L227.589 120.904L228.47 121.783Z" fill="#226CE0"/>
</g>
<g opacity="0.58">
<path opacity="0.58" d="M170.908 114.473L171.709 178.432L171.701 178.448L171.685 178.456L171.485 178.656L113.794 121.08L114.011 120.872V120.864L171.14 63.8469L196.343 89.0001L170.86 114.433L170.908 114.473Z" fill="#D0BCD5"/>
</g>
<g opacity="0.58">
<path opacity="0.58" d="M227.967 120.513L227.601 120.871L228.475 121.763L228.841 121.405L227.967 120.513Z" fill="#D0BCD5"/>
</g>
<path d="M228.254 57.1447L227.701 57.7046L196.479 88.8642L196.343 89.0002L170.86 114.433L170.715 114.577L114.011 57.9845L113.794 57.7685L113.995 57.5686L171.333 0.335938L171.701 0.703839L228.142 57.0327L228.254 57.1447Z" fill="#FFFAFA"/>
<path d="M171.709 178.432V178.456L114.011 120.872V120.864L145.512 89.424L114.011 57.9845V57.8325L145.633 89.3041L170.86 114.433L170.908 114.473L171.709 178.432Z" fill="#3681F8"/>
<g clip-path="url(#clip0_52_131)">
<path d="M360.857 133.124H348.661L323.162 95.0962H333.802C338.093 95.0962 341.641 93.6789 344.447 90.844C347.256 88.0883 348.661 84.5834 348.661 80.3296C348.661 76.0033 347.256 72.4606 344.447 69.7015C341.638 66.8667 338.089 65.4494 333.802 65.4494H315.405V133.124H304.315V54.8213H333.802C341.633 54.8213 347.954 57.1705 352.767 61.8688C357.416 66.4782 359.743 72.4441 359.746 79.7665C359.746 85.7324 358.084 90.8787 354.759 95.2049C351.434 99.5312 346.889 102.364 341.124 103.704L360.857 133.124Z" fill="#FFFAFA"/>
<path d="M496.532 123.74V133.267L478.996 133.139H477.827V125.864C473.324 131.461 467.226 134.26 459.532 134.26C452.442 134.26 446.68 131.871 442.246 127.094C437.884 122.396 435.703 116.393 435.703 109.087V77.2032H446.788V107.937C446.788 112.786 448.193 116.591 451.002 119.35C453.739 122.185 457.509 123.602 462.312 123.602C467.115 123.602 470.883 122.185 473.618 119.35C476.427 116.591 477.83 112.786 477.827 107.937V77.1736H488.912V123.74H496.532Z" fill="#FFFAFA"/>
<path d="M514.42 54.8213V84.5769C519.742 78.9073 526.394 76.0741 534.378 76.0774C542.281 76.0774 548.857 78.8364 554.107 84.3545C559.425 89.9517 562.086 96.8872 562.089 105.161C562.092 113.435 559.431 120.371 554.107 125.968C548.867 131.489 542.29 134.25 534.378 134.25C526.394 134.25 519.742 131.415 514.42 125.746V133.124H503.335V54.8213H514.42ZM545.904 118.476C549.304 115.045 551.004 110.6 551.004 105.141C551.004 99.6825 549.304 95.2377 545.904 91.8069C542.501 88.3795 538.096 86.6642 532.69 86.6609C527.283 86.6576 522.879 88.3729 519.476 91.8069C516.073 95.2377 514.373 99.6825 514.376 105.141C514.379 110.6 516.079 115.045 519.476 118.476C522.872 121.903 527.277 123.617 532.69 123.617C538.103 123.617 542.508 121.903 545.904 118.476Z" fill="#FFFAFA"/>
<path d="M587.582 62.6489L578.719 71.5979L569.836 62.6489L578.709 53.7002L587.582 62.6489ZM573.174 77.1935H584.259V133.124H573.174V77.1935Z" fill="#FFFAFA"/>
<path d="M598.672 54.8213H609.758V133.124H598.672V54.8213ZM647.452 77.1934L625.277 105.161L647.452 133.129H634.703L612.533 105.161L634.703 77.1934H647.452Z" fill="#FFFAFA"/>
<path d="M422.401 77.1934V133.124H411.32V125.849C406.808 131.447 400.71 134.245 393.026 134.245C385.933 134.245 380.168 131.856 375.73 127.079C371.371 122.381 369.192 116.378 369.192 109.073V77.1886H380.277V107.937C380.277 112.787 381.682 116.591 384.491 119.35C387.222 122.185 390.988 123.602 395.791 123.602C400.594 123.602 404.366 122.185 407.106 119.35C409.912 116.591 411.317 112.787 411.32 107.937V86.6164H403.925V77.0897L415.084 77.1736L422.401 77.1934Z" fill="#FFFAFA"/>
</g>
<defs>
<clipPath id="clip0_52_131">
<rect width="343.122" height="80.55" fill="white" transform="translate(304.335 53.7)"/>
</clipPath>
</defs>
</svg>
