<svg width="55" height="44" viewBox="0 0 55 44" fill="none" xmlns="http://www.w3.org/2000/svg">
<path d="M13.9336 0.0827637L13.7408 15.2856L27.6224 29.2299V13.7461L13.9336 0.0827637Z" fill="#7EB0FE"/>
<path d="M27.5897 29.3857L13.9337 43.0163L13.7409 27.6268L13.7294 27.6172L19.8604 21.4976L27.4644 29.0874L27.3777 29.174L27.5897 29.3857Z" fill="#225FBC"/>
<path d="M27.5376 13.8327L27.4046 13.9674L19.8931 21.4649L19.8603 21.4976L13.7293 27.6172L13.6946 27.6518L0.052056 14.0347L0 13.9828L0.0482 13.9347L13.843 0.163574L13.9317 0.252097L27.5106 13.8057L27.5376 13.8327Z" fill="#3681F8"/>
<path d="M13.9336 43.0163V43.0221L0.052002 29.1664V29.1644L7.63096 21.5996L0.052002 14.0347V13.9982L7.65988 21.5707L13.7292 27.6172L13.7408 27.6268L13.9336 43.0163Z" fill="#7EB0FE"/>
<path d="M41.3112 0L41.1184 15.2028L55 29.1471V13.6633L41.3112 0Z" fill="#7EB0FE"/>
<path d="M54.9672 29.3031L41.3112 42.9337L41.1184 27.5442L41.1068 27.5345L47.2378 21.4149L54.8419 29.0048L54.7551 29.0914L54.9672 29.3031Z" fill="#225FBC"/>
<path d="M54.9152 13.7499L54.7821 13.8846L47.2706 21.3821L47.2379 21.4148L41.1068 27.5344L41.0721 27.5691L27.4296 13.952L27.3776 13.9L27.4258 13.8519L41.2206 0.0808105L41.3093 0.169333L54.8882 13.723L54.9152 13.7499Z" fill="#3681F8"/>
<path d="M41.3112 42.9336V42.9394L27.4296 29.0836V29.0817L35.0085 21.5168L27.4296 13.952V13.9154L35.0374 21.488L41.1068 27.5345L41.1184 27.5441L41.3112 42.9336Z" fill="#7EB0FE"/>
</svg>
